<svg xmlns="http://www.w3.org/2000/svg" xmlns:svg="http://www.w3.org/2000/svg" id="svg2" width="100" height="100" version="1.1" viewBox="0 0 100 100"><metadata id="metadata7"/><g id="layer1" transform="translate(0,-952.36217)"><path style="color:#000;font-style:normal;font-variant:normal;font-weight:400;font-stretch:normal;font-size:medium;line-height:normal;font-family:sans-serif;text-indent:0;text-align:start;text-decoration:none;text-decoration-line:none;text-decoration-style:solid;text-decoration-color:#000;letter-spacing:normal;word-spacing:normal;text-transform:none;direction:ltr;block-progression:tb;writing-mode:lr-tb;baseline-shift:baseline;text-anchor:start;white-space:normal;clip-rule:nonzero;display:inline;overflow:visible;visibility:visible;opacity:1;isolation:auto;mix-blend-mode:normal;color-interpolation:sRGB;color-interpolation-filters:linearRGB;solid-color:#000;solid-opacity:1;fill:#333;fill-opacity:1;fill-rule:nonzero;stroke:none;stroke-width:3.69111967;stroke-linecap:round;stroke-linejoin:round;stroke-miterlimit:4;stroke-dasharray:none;stroke-dashoffset:0;stroke-opacity:1;color-rendering:auto;image-rendering:auto;shape-rendering:auto;text-rendering:auto;enable-background:accumulate" id="rect4687" d="m 25.32258,960.85726 0,6.50355 -5.9495,0 c -4.70384,0 -8.55768,3.85383 -8.55768,8.55769 l 0,59.3933 c 0,4.7038 3.85384,8.5553 8.55768,8.5553 l 61.25383,0 c 4.70385,0 8.55769,-3.8515 8.55769,-8.5553 l 0,-59.3933 c 0,-4.70386 -3.85384,-8.55769 -8.55769,-8.55769 l -5.6277,0 0,-6.14063 -6.55435,0 0,6.14063 -36.56795,0 0,-6.50355 -6.55435,0 z m -7.28746,22.28337 63.89589,0 0,49.59207 c 0,2.2032 -1.71375,3.9171 -3.91712,3.9171 l -56.06165,0 c -2.20335,0 -3.91712,-1.7139 -3.91712,-3.9171 l 0,-49.59207 z m 35.50578,20.97197 c -2.43698,0 -4.39861,1.9617 -4.39861,4.3986 l 0,16.6049 c 0,2.437 1.96162,4.3986 4.39861,4.3986 l 16.60485,0 c 2.437,0 4.3986,-1.9616 4.3986,-4.3986 l 0,-16.6049 c 0,-2.4369 -1.9616,-4.3986 -4.3986,-4.3986 l -16.60485,0 z"/></g></svg>