<svg xmlns="http://www.w3.org/2000/svg" xmlns:svg="http://www.w3.org/2000/svg" id="svg2" width="80" height="100" version="1.1" viewBox="0 0 80 100"><metadata id="metadata7"/><g id="layer1" transform="translate(-10,-952.36218)"><rect style="fill:#03a9f4;fill-opacity:1;stroke:none;stroke-width:8;stroke-linecap:round;stroke-linejoin:round;stroke-miterlimit:4;stroke-dasharray:none;stroke-opacity:1" id="rect4692-7-7-3" width="80" height="100" x="10" y="952.362" rx=".114" ry=".104"/><path style="fill:#fff;fill-opacity:1;stroke:none;stroke-width:1.5;stroke-linejoin:miter;stroke-miterlimit:4;stroke-dasharray:none;stroke-opacity:1" id="path4684-9" d="m 49.999995,987.98302 a 3.4540442,3.4540442 0 0 0 -3.45358,3.45501 3.4540442,3.4540442 0 0 0 3.45358,3.45358 3.4540442,3.4540442 0 0 0 3.45359,-3.45358 3.4540442,3.4540442 0 0 0 -3.45359,-3.45501 z m 0,10.99811 a 3.4540442,3.4540442 0 0 0 -3.45358,3.45357 3.4540442,3.4540442 0 0 0 3.45358,3.455 3.4540442,3.4540442 0 0 0 3.45359,-3.455 3.4540442,3.4540442 0 0 0 -3.45359,-3.45357 z m 0,10.85167 a 3.4540442,3.4540442 0 0 0 -3.45358,3.4535 3.4540442,3.4540442 0 0 0 3.45358,3.455 3.4540442,3.4540442 0 0 0 3.45359,-3.455 3.4540442,3.4540442 0 0 0 -3.45359,-3.4535 z"/></g></svg>