<svg xmlns="http://www.w3.org/2000/svg" xmlns:svg="http://www.w3.org/2000/svg" id="svg2" width="100" height="100" version="1.1" viewBox="0 0 100 100"><metadata id="metadata7"/><g id="layer1" transform="translate(0,-952.36217)"><rect style="fill:#03a9f4;fill-opacity:1;stroke:none;stroke-width:8;stroke-linecap:round;stroke-linejoin:round;stroke-miterlimit:4;stroke-dasharray:none;stroke-opacity:1" id="rect4692-3" width="100" height="100" x="0" y="952.362" rx=".114" ry=".104"/><path style="color:#000;font-style:normal;font-variant:normal;font-weight:400;font-stretch:normal;font-size:medium;line-height:normal;font-family:sans-serif;text-indent:0;text-align:start;text-decoration:none;text-decoration-line:none;text-decoration-style:solid;text-decoration-color:#000;letter-spacing:normal;word-spacing:normal;text-transform:none;direction:ltr;block-progression:tb;writing-mode:lr-tb;baseline-shift:baseline;text-anchor:start;white-space:normal;clip-rule:nonzero;display:inline;overflow:visible;visibility:visible;opacity:1;isolation:auto;mix-blend-mode:normal;color-interpolation:sRGB;color-interpolation-filters:linearRGB;solid-color:#000;solid-opacity:1;fill:#fff;fill-opacity:1;fill-rule:evenodd;stroke:none;stroke-width:5;stroke-linecap:round;stroke-linejoin:round;stroke-miterlimit:4;stroke-dasharray:none;stroke-dashoffset:0;stroke-opacity:1;color-rendering:auto;image-rendering:auto;shape-rendering:auto;text-rendering:auto;enable-background:accumulate" id="path4762-3" d="m 50.940854,988.22434 c -0.27452,0.0112 -0.53719,0.11488 -0.7454,0.29416 l -15.41073,12.8889 c -0.0323,0.027 -0.0631,0.056 -0.0923,0.087 -0.28901,0.2981 -0.40634,0.723 -0.3113,1.1272 0.0186,0.079 0.0452,0.1557 0.079,0.2294 0.017,0.037 0.0357,0.073 0.0562,0.1085 0.0618,0.1053 0.13923,0.2005 0.22943,0.2828 l 0.004,0.01 c 0.0115,0.01 0.0232,0.021 0.0352,0.03 l 15.41073,12.889 c 1.25132,1.1092 2.87599,-0.8332 1.56315,-1.8688 l -12.8356,-10.7355 25.49701,0 c 0.0406,4e-4 0.0813,0 0.12184,-0.01 1.55473,-0.1405 1.43913,-2.448 -0.12184,-2.4323 l -25.49892,0 12.83751,-10.73656 c 0.90847,-0.73931 0.3526,-2.20954 -0.81775,-2.16291 z"/></g></svg>