<svg xmlns="http://www.w3.org/2000/svg" xmlns:svg="http://www.w3.org/2000/svg" id="svg2" width="100" height="100" version="1.1" viewBox="0 0 100 100"><metadata id="metadata7"/><g id="layer1" transform="translate(0,-952.36217)"><g id="g6" transform="matrix(0.83388489,0,0,0.83388489,8.2227,960.66789)" style="fill:#03a9f4;fill-opacity:1"><g id="g8" style="fill:#03a9f4;fill-opacity:1"><path style="fill:#03a9f4;fill-opacity:1" id="circle10" d="m 299.30078,482.90039 c -1.4,0 -2.70117,0.5 -3.70117,1.5 l -7.19922,6.79883 c -0.2,0.2 -0.40117,0.30078 -0.70117,0.30078 l -2.29883,0 c -7.6,0 -13.80078,6.20078 -13.80078,13.80078 l 0,25 c 0,7.1 5.70078,12.79883 12.80078,12.79883 l 20.19922,0 1,0 20.20117,0 c 7.1,0 12.79883,-5.69883 12.79883,-12.79883 l 0,-25 c -0.1,-7.6 -6.29883,-13.80078 -13.79883,-13.80078 l -2.30078,0 c -0.2,0 -0.49922,-0.10078 -0.69922,-0.30078 l -7.20117,-6.79883 c -1,-0.9 -2.29922,-1.5 -3.69922,-1.5 l -5.30078,0 -1,0 z m 5.876,19.87258 c 8.25067,0 14.96446,6.71379 14.96446,14.96446 0,8.25068 -6.71379,14.96447 -14.96446,14.96447 -8.25068,0 -14.96447,-6.71379 -14.96447,-14.96447 0,-8.25067 6.71379,-14.96446 14.96447,-14.96446 z m -0.0584,3.13445 c -6.21975,0 -11.88057,5.66082 -11.88057,11.88057 0,6.21975 5.66082,11.88057 11.88057,11.88057 6.21975,0 11.88058,-5.66082 11.88058,-11.88057 0,-6.21975 -5.66083,-11.88057 -11.88058,-11.88057 z" transform="translate(-255.00001,-462.99993)"/></g></g></g></svg>