<svg xmlns="http://www.w3.org/2000/svg" xmlns:svg="http://www.w3.org/2000/svg" id="svg2" width="100" height="100" version="1.1" viewBox="0 0 100 100"><metadata id="metadata7"/><g id="layer1" transform="translate(0,-952.36217)"><path style="fill:#03a9f4;fill-opacity:1;stroke:none;stroke-width:10;stroke-linejoin:miter;stroke-miterlimit:4;stroke-dasharray:none;stroke-opacity:1" id="path4301" d="m 50,968.36218 a 33.999173,33.999173 0 0 0 -34,34.00002 33.999173,33.999173 0 0 0 34,34 33.999173,33.999173 0 0 0 34,-34 33.999173,33.999173 0 0 0 -34,-34.00002 z m 0,5.1858 A 28.8149,28.8149 0 0 1 78.8142,1002.3622 28.8149,28.8149 0 0 1 50,1031.1764 28.8149,28.8149 0 0 1 21.1858,1002.3622 28.8149,28.8149 0 0 1 50,973.54798 Z m 0,8.03321 A 20.781748,20.781748 0 0 0 29.21901,1002.3622 20.781748,20.781748 0 0 0 50,1023.1432 20.781748,20.781748 0 0 0 70.78099,1002.3622 20.781748,20.781748 0 0 0 50,981.58119 Z"/></g></svg>