<svg xmlns="http://www.w3.org/2000/svg" xmlns:svg="http://www.w3.org/2000/svg" id="svg2" width="100" height="100" version="1.1" viewBox="0 0 100 100"><metadata id="metadata7"/><g id="layer1" transform="translate(0,-952.36217)"><path style="fill:#333;fill-opacity:1;stroke:none;stroke-width:10;stroke-linejoin:miter;stroke-miterlimit:4;stroke-dasharray:none;stroke-opacity:1" id="path4301-2" d="m 50,968.36214 c -18.77788,-4.6e-4 -34.00047,15.22215 -34,34.00006 -4.6e-4,18.7778 15.22213,34.0004 34,34 18.77787,4e-4 34.00046,-15.2222 34,-34 4.7e-4,-18.77791 -15.22212,-34.00052 -34,-34.00006 z m 0,5.1858 c 15.91349,3.9e-4 28.81383,12.90075 28.8142,28.81426 -3.9e-4,15.9135 -12.90072,28.8138 -28.8142,28.8142 -15.91348,-4e-4 -28.81381,-12.9007 -28.8142,-28.8142 C 21.18617,986.44869 34.08651,973.54833 50,973.54794 Z"/></g></svg>