<svg xmlns="http://www.w3.org/2000/svg" xmlns:svg="http://www.w3.org/2000/svg" id="svg2" width="100" height="100" version="1.1" viewBox="0 0 100 100"><metadata id="metadata7"/><g id="layer1" transform="translate(0,-952.36217)"><path style="fill:#fff;stroke-width:1.32324862" id="rect9" d="M 29.070408,968.73046 H 71.08355 v 69.47064 H 29.070408 Z"/><path style="fill:red;stroke-width:1.11111116" id="path2" d="M 49.999999,952.36217 C 22.444443,952.36217 0,974.80662 0,1002.3622 c 0,27.5557 22.444443,50 49.999999,50 27.555557,0 50.000001,-22.4443 50.000001,-50 0,-27.55558 -22.444444,-50.00003 -50.000001,-50.00003 z m 0,80.00003 c -2.777777,0 -5,-2.2222 -5,-5 0,-2.7777 2.222223,-5 5,-5 2.777778,0 5,2.2223 5,5 0,2.7778 -2.222222,5 -5,5 z m 7.555557,-50.00003 -2.555557,30.00003 c -0.222222,2.7778 -2.666666,4.7778 -5.444444,4.5556 -2.444444,-0.2222 -4.333334,-2.2222 -4.555556,-4.5556 l -2.555555,-30.00003 c -0.333334,-4.11112 2.777777,-7.77778 6.888889,-8.11112 4.11111,-0.33332 7.777778,2.77778 8.111112,6.88889 0.111112,0.33334 0.111112,0.77778 0.111111,1.22223 z"/></g></svg>