<svg xmlns="http://www.w3.org/2000/svg" xmlns:svg="http://www.w3.org/2000/svg" id="svg2" width="100" height="100" version="1.1" viewBox="0 0 100 100"><metadata id="metadata7"/><g id="layer1" transform="translate(0,-952.36217)"><path id="path2" d="M 69.687264,968.1906 H 32.084093 c -3.181806,0 -5.785103,2.60331 -5.785103,5.7851 v 57.851 c 0,3.1818 2.603297,5.7851 5.785103,5.7851 h 37.603171 c 3.181805,0 5.785101,-2.6033 5.785101,-5.7851 v -57.851 c 0,-3.18179 -2.603296,-5.7851 -5.785101,-5.7851 z m -33.264344,63.6361 c -2.314041,0 -4.338827,-2.0248 -4.338827,-4.3388 0,-2.3139 2.024786,-4.3388 4.338827,-4.3388 2.314042,0 4.338828,2.0249 4.338828,4.3388 0,2.314 -2.024786,4.3388 -4.338828,4.3388 z m 0,-14.4628 c -2.314041,0 -4.338827,-2.0248 -4.338827,-4.3388 0,-2.314 2.024786,-4.3387 4.338827,-4.3387 2.314042,0 4.338828,2.0247 4.338828,4.3387 0,2.314 -2.024786,4.3388 -4.338828,4.3388 z m 0,-14.4626 c -2.314041,0 -4.338827,-2.0249 -4.338827,-4.3389 0,-2.31403 2.024786,-4.33883 4.338827,-4.33883 2.314042,0 4.338828,2.0248 4.338828,4.33883 0,2.314 -2.024786,4.3389 -4.338828,4.3389 z m 14.462757,28.9254 c -2.314042,0 -4.338828,-2.0248 -4.338828,-4.3388 0,-2.3139 2.024786,-4.3388 4.338828,-4.3388 2.314041,0 4.338828,2.0249 4.338828,4.3388 0,2.314 -2.024787,4.3388 -4.338828,4.3388 z m 0,-14.4628 c -2.314042,0 -4.338828,-2.0248 -4.338828,-4.3388 0,-2.314 2.024786,-4.3387 4.338828,-4.3387 2.314041,0 4.338828,2.0247 4.338828,4.3387 0,2.314 -2.024787,4.3388 -4.338828,4.3388 z m 0,-14.4626 c -2.314042,0 -4.338828,-2.0249 -4.338828,-4.3389 0,-2.31403 2.024786,-4.33883 4.338828,-4.33883 2.314041,0 4.338828,2.0248 4.338828,4.33883 0,2.314 -2.024787,4.3389 -4.338828,4.3389 z m 18.801587,24.5866 c 0,2.314 -2.024788,4.3388 -4.338828,4.3388 -2.314043,0 -4.338829,-2.0248 -4.338829,-4.3388 v -14.4628 c 0,-2.314 2.024786,-4.3387 4.338829,-4.3387 2.31404,0 4.338828,2.0247 4.338828,4.3387 z m -4.338828,-24.5866 c -2.314043,0 -4.338829,-2.0249 -4.338829,-4.3389 0,-2.31403 2.024786,-4.33883 4.338829,-4.33883 2.31404,0 4.338828,2.0248 4.338828,4.33883 0,2.314 -2.024788,4.3389 -4.338828,4.3389 z m 4.338828,-14.46284 H 32.084093 v -11.5702 c 0,-1.73553 1.15702,-2.89256 2.892552,-2.89256 h 31.818066 c 1.735532,0 2.892553,1.15703 2.892553,2.89256 z" style="stroke-width:2.89255142;fill:#ccc;fill-opacity:1"/></g></svg>