<svg xmlns="http://www.w3.org/2000/svg" xmlns:svg="http://www.w3.org/2000/svg" id="svg2" width="100" height="100" version="1.1" viewBox="0 0 100 100"><metadata id="metadata7"/><g id="layer1" transform="translate(0,-952.36217)"><g id="g4" transform="matrix(-0.8369781,0,0,0.8369781,91.785485,960.40751)"><path id="path2" d="m 23.9,51.4 c 2.8,2.8 6.2,4.2 10.2,4.2 4,0 7.5,-1.5 10.4,-4.4 l 4.4,4.4 c -2.9,2.9 -4.4,6.3 -4.4,10.4 0,4 1.4,7.4 4.1,10.1 l 10.3,10.3 c 2.8,2.8 6.1,4.2 10.2,4.2 4,0 7.4,-1.4 10.1,-4.1 l 7.3,-7.3 c 2.8,-2.8 4.2,-6.1 4.2,-10.1 0,-4 -1.4,-7.4 -4.2,-10.2 L 76.1,48.6 c -2.8,-2.8 -6.2,-4.2 -10.2,-4.2 -4,0 -7.5,1.5 -10.4,4.4 L 51.1,44.4 C 54,41.5 55.5,38.1 55.5,34 55.5,30 54.1,26.6 51.4,23.9 L 41.2,13.6 C 38.4,10.8 35,9.4 31,9.4 c -4,0 -7.4,1.4 -10.1,4.1 l -7.3,7.3 c -2.8,2.8 -4.2,6.1 -4.2,10.1 0,4 1.4,7.4 4.2,10.2 z m 31.7,10.9 c 0.1,0.1 0.4,0.4 0.9,0.9 0.5,0.5 0.9,0.9 1.1,1.1 0.2,0.2 0.5,0.4 0.9,0.7 0.4,0.3 0.9,0.5 1.3,0.6 0.4,0.1 0.9,0.2 1.4,0.2 1.3,0 2.5,-0.5 3.4,-1.4 0.9,-0.9 1.4,-2.1 1.4,-3.4 0,-0.5 -0.1,-1 -0.2,-1.4 -0.1,-0.4 -0.3,-0.8 -0.6,-1.3 -0.3,-0.4 -0.6,-0.7 -0.7,-0.9 -0.2,-0.2 -0.5,-0.6 -1.1,-1.1 -0.5,-0.5 -0.8,-0.8 -0.9,-0.9 1,-1.1 2.2,-1.6 3.6,-1.6 1.3,0 2.5,0.5 3.4,1.4 l 10.4,10.4 c 0.9,0.9 1.4,2.1 1.4,3.4 0,1.3 -0.5,2.4 -1.4,3.3 l -7.3,7.3 C 71.4,80.6 70.3,81 69,81 67.6,81 66.5,80.6 65.6,79.7 L 55.3,69.4 c -0.9,-0.9 -1.4,-2.1 -1.4,-3.4 0,-1.4 0.6,-2.6 1.7,-3.7 z M 20.3,27.5 27.6,20.2 c 1,-0.9 2.1,-1.3 3.4,-1.3 1.3,0 2.5,0.5 3.4,1.4 l 10.3,10.3 c 0.9,0.9 1.4,2.1 1.4,3.4 0,1.4 -0.5,2.6 -1.6,3.6 -0.1,-0.1 -0.4,-0.4 -0.9,-0.9 -0.5,-0.5 -0.9,-0.9 -1.1,-1.1 -0.2,-0.2 -0.5,-0.4 -0.9,-0.7 -0.4,-0.3 -0.9,-0.5 -1.3,-0.6 -0.4,-0.1 -0.9,-0.2 -1.4,-0.2 -1.3,0 -2.5,0.5 -3.4,1.4 -0.9,0.9 -1.4,2.1 -1.4,3.4 0,0.5 0.1,1 0.2,1.4 0.1,0.4 0.3,0.8 0.6,1.3 0.3,0.4 0.6,0.7 0.7,0.9 0.2,0.2 0.5,0.6 1.1,1.1 0.5,0.5 0.8,0.8 0.9,0.9 -1,1 -2.2,1.5 -3.6,1.5 -1.4,0 -2.5,-0.4 -3.4,-1.3 L 20.3,34.3 c -0.9,-0.9 -1.4,-2.1 -1.4,-3.4 0,-1.3 0.5,-2.4 1.4,-3.4 z"/></g></g></svg>