<svg xmlns="http://www.w3.org/2000/svg" xmlns:svg="http://www.w3.org/2000/svg" id="svg2" width="100" height="100" version="1.1" viewBox="0 0 100 100"><metadata id="metadata7"/><g id="layer1" transform="translate(0,-952.36217)"><path id="path6-7-3-4" d="m 17.4978,963.88756 c -3.7091,0 -6.6757,2.9667 -6.6757,6.6758 l 0,21.0996 0,45.25204 c 0,3.7091 2.9666,6.6757 6.6757,6.6757 l 39.0704,0 c 3.7091,0 6.6757,-2.9666 6.6757,-6.6757 l 0,-66.35164 c 0,-3.7091 -3.0491,-6.6758 -6.6757,-6.6758 l -39.0704,0 z m 0.3301,8.9004 38.4102,0 0,54.81254 -38.4102,0 0,-54.81254 z m 19.2051,59.51174 c 1.8958,0 3.4609,1.5652 3.4609,3.461 0,1.8957 -1.5651,3.4629 -3.4609,3.4629 -1.8958,0 -3.4609,-1.5672 -3.4609,-3.4629 0,-1.8958 1.5651,-3.461 3.4609,-3.461 z" style="fill:#000"/><rect style="fill:#fff;fill-opacity:1;stroke:none;stroke-width:3.5;stroke-linecap:round;stroke-linejoin:round;stroke-miterlimit:4;stroke-dasharray:none;stroke-opacity:1" id="rect4506-1" width="7.493" height="15.764" x="55.871" y="984.143"/><path id="path7-6" d="m 87.7228,994.65286 c -2.0564,0 -3.7457,1.6892 -3.7457,3.7457 l 0,15.60714 c 0,2.0563 1.6893,3.7455 3.7457,3.7455 2.0564,0 3.7457,-1.6892 3.7457,-3.7455 l 0,-15.60714 c 0,-2.0749 -1.6893,-3.7457 -3.7457,-3.7457 z m -43.6996,0 c -2.0564,0 -3.7456,1.6892 -3.7456,3.7457 l 0,15.60714 c 0,2.0563 1.6892,3.7455 3.7456,3.7455 2.0565,0 3.7457,-1.6892 3.7457,-3.7455 l 0,-15.60714 c 0,-2.0749 -1.6892,-3.7457 -3.7457,-3.7457 z m 38.5584,0.6427 0,24.21824 c 0,2.2401 -1.7994,4.0395 -4.0394,4.0395 l -2.6808,0 0,8.2625 c 0,2.0565 -1.6892,3.7457 -3.7457,3.7457 -2.0564,0 -3.7456,-1.6892 -3.7456,-3.7457 l 0,-8.2625 -4.9942,0 0,8.2625 c 0,2.0565 -1.6893,3.7457 -3.7457,3.7457 -2.0565,0 -3.7457,-1.6892 -3.7457,-3.7457 l 0,-8.2625 -2.6806,0 c -2.2402,0 -4.0395,-1.7994 -4.0395,-4.0395 l 0,-24.21824 33.4172,0 z m -8.5195,-14.7442 2.6439,-4.7738 c 0.1469,-0.2569 0.056,-0.5874 -0.2019,-0.7161 -0.074,-0.037 -0.1653,-0.074 -0.2571,-0.074 -0.1836,0 -0.3672,0.091 -0.459,0.2753 l -2.6807,4.8107 c -2.1849,-0.9731 -4.6454,-1.524 -7.2343,-1.524 -2.5889,0 -5.0493,0.5509 -7.2343,1.524 l -2.6624,-4.8107 c -0.1468,-0.2569 -0.459,-0.3488 -0.716,-0.2019 -0.257,0.1468 -0.3489,0.459 -0.202,0.7161 l 2.644,4.7738 c -5.086,2.6442 -8.5013,7.6565 -8.5195,13.4221 l 33.4172,0 c -0.018,-5.7656 -3.4519,-10.7779 -8.5379,-13.4221 z m -15.9008,7.3079 c -0.7712,0 -1.3955,-0.6245 -1.3955,-1.3954 0,-0.7712 0.6243,-1.3956 1.3955,-1.3956 0.7713,0 1.3955,0.6244 1.3955,1.3956 0,0.7709 -0.6242,1.3954 -1.3955,1.3954 z m 15.4233,0 c -0.7711,0 -1.3953,-0.6245 -1.3953,-1.3954 0,-0.7712 0.6242,-1.3956 1.3953,-1.3956 0.7712,0 1.3955,0.6244 1.3955,1.3956 0,0.7709 -0.6243,1.3954 -1.3955,1.3954 z" class="st1" style="fill:#77c159;stroke:none"/></g></svg>