<svg xmlns="http://www.w3.org/2000/svg" xmlns:svg="http://www.w3.org/2000/svg" id="svg2" width="100" height="100" version="1.1" viewBox="0 0 100 100"><metadata id="metadata7"/><g id="layer1" transform="translate(0,-952.36217)"><path id="path6-7-3-4-4-6" d="m 30.3825,962.51129 c -3.7091,0 -6.6757,2.9667 -6.6757,6.6758 l 0,21.0996 0,45.25201 c 0,3.7091 2.9666,6.6757 6.6757,6.6757 l 39.0704,0 c 3.7091,0 6.6757,-2.9666 6.6757,-6.6757 l 0,-66.35161 c 0,-3.7091 -3.0491,-6.6758 -6.6757,-6.6758 l -39.0704,0 z m 0.3301,8.9004 38.4102,0 0,54.81251 -38.4102,0 0,-54.81251 z m 19.2051,59.51171 c 1.8958,0 3.4609,1.5652 3.4609,3.461 0,1.8957 -1.5651,3.4629 -3.4609,3.4629 -1.8958,0 -3.4609,-1.5672 -3.4609,-3.4629 0,-1.8958 1.5651,-3.461 3.4609,-3.461 z" style="fill:#000"/><path style="fill:red;fill-opacity:1;stroke:none;stroke-width:16;stroke-linecap:round;stroke-linejoin:round;stroke-miterlimit:4;stroke-dasharray:none;stroke-opacity:1" id="rect4296" d="m 59.6354,984.64989 c -0.4101,-0.4102 -1.1901,-0.2908 -1.7485,0.2678 l -7.9692,7.9692 -7.9693,-7.9692 c -0.5584,-0.5586 -1.3384,-0.678 -1.7486,-0.2678 l -4.2573,4.2573 c -0.4101,0.4101 -0.2907,1.1901 0.2678,1.7485 l 7.9692,7.9693 -7.9692,7.96921 c -0.5585,0.5581 -0.6779,1.3384 -0.2678,1.7483 l 4.2573,4.2572 c 0.4102,0.4103 1.1902,0.2908 1.7486,-0.2677 l 7.9693,-7.9692 7.9692,7.9692 c 0.5584,0.5585 1.3384,0.678 1.7485,0.2677 l 4.2573,-4.2572 c 0.4102,-0.4102 0.2908,-1.1902 -0.2677,-1.7483 l -7.9692,-7.96921 7.9692,-7.9693 c 0.5585,-0.5587 0.6779,-1.3387 0.2677,-1.7485 l -4.2573,-4.2573 z"/></g></svg>