<svg xmlns="http://www.w3.org/2000/svg" xmlns:svg="http://www.w3.org/2000/svg" id="svg2" width="100" height="100" version="1.1" viewBox="0 0 100 100"><metadata id="metadata7"/><g id="layer1" transform="translate(0,-952.36217)"><path style="fill:#000;fill-opacity:1;stroke:none;stroke-width:10;stroke-linejoin:miter;stroke-miterlimit:4;stroke-dasharray:none;stroke-opacity:1" id="rect4222" d="m 10.940398,982.38078 c -2.0646407,0 -3.726788,1.66213 -3.726788,3.72678 l 0,32.50924 c 0,2.0647 1.6621473,3.7268 3.726788,3.7268 l 78.119204,0 c 2.064643,0 3.726788,-1.6621 3.726788,-3.7268 l 0,-32.50924 c 0,-2.06465 -1.662145,-3.72678 -3.726788,-3.72678 l -78.119204,0 z m 1.015684,2.88016 52.740543,0 0,34.20246 -52.740543,0 c -0.822547,0 -1.48489,-0.6623 -1.484893,-1.4849 l 0,-31.23261 c 6e-6,-0.82255 0.662346,-1.48495 1.484893,-1.48495 z m 59.540139,13.72521 14.689904,0 -7.344953,9.15075 -7.344951,-9.15075 z"/></g></svg>