<svg xmlns="http://www.w3.org/2000/svg" xmlns:svg="http://www.w3.org/2000/svg" id="svg2" width="100" height="100" version="1.1" viewBox="0 0 100 100"><metadata id="metadata7"/><g id="layer1" transform="translate(0,-952.36217)"><g id="g4" transform="matrix(0.78810069,0,0,0.78810069,10.59497,212.2996)" style="fill:#ccc"><path style="color:#000;display:inline;overflow:visible;visibility:visible;opacity:1;fill:#ccc;fill-opacity:1;stroke:none;stroke-width:4;stroke-linecap:round;stroke-linejoin:round;stroke-miterlimit:4;stroke-dasharray:none;stroke-dashoffset:0;stroke-opacity:1;marker:none;enable-background:accumulate" id="path6" d="M 50,8 C 35.088312,8 23,20.08831 23,35 23,51.79842 40,77 50,92 60,77 77,51.79842 77,35 77,20.08831 64.911688,8 50,8 Z m 0,15 c 6.627417,0 12,5.372583 12,12 0,6.627417 -5.372583,12 -12,12 -6.627417,0 -12,-5.372583 -12,-12 0,-6.627417 5.372583,-12 12,-12 z" transform="translate(0,952.36218)"/></g></g></svg>