<svg xmlns="http://www.w3.org/2000/svg" xmlns:svg="http://www.w3.org/2000/svg" id="svg2" width="100" height="100" version="1.1" viewBox="0 0 100 100"><metadata id="metadata7"/><g id="layer1" transform="translate(0,-952.36217)"><path style="fill:#000;fill-opacity:1;stroke:none;stroke-width:3.20000005;stroke-linecap:round;stroke-linejoin:round;stroke-miterlimit:4;stroke-dasharray:none;stroke-opacity:1" id="rect5156" d="m 68.06418,988.14119 7.10542,0 2.02054,2.0301 -2.02054,2.0302 -7.10542,0 -2.02055,-2.0302 z"/><path style="fill:#000;fill-opacity:1;stroke:none;stroke-width:3.20000005;stroke-linecap:round;stroke-linejoin:round;stroke-miterlimit:4;stroke-dasharray:none;stroke-opacity:1" id="rect5156-8" d="m 79.58866,992.59609 0,7.1055 -2.03013,2.02051 -2.03011,-2.02051 0,-7.1055 2.03011,-2.0204 z"/><path style="fill:#000;fill-opacity:1;stroke:none;stroke-width:3.20000005;stroke-linecap:round;stroke-linejoin:round;stroke-miterlimit:4;stroke-dasharray:none;stroke-opacity:1" id="rect5156-0" d="m 68.04787,1000.0437 7.10543,0 2.02054,2.0301 -2.02054,2.0301 -7.10543,0 -2.02053,-2.0301 z"/><path style="fill:#000;fill-opacity:1;stroke:none;stroke-width:3.20000005;stroke-linecap:round;stroke-linejoin:round;stroke-miterlimit:4;stroke-dasharray:none;stroke-opacity:1" id="rect5156-0-0" d="m 75.16396,1011.9831 -7.10542,0 -2.02055,2.03 2.02055,2.0301 7.10542,0 2.02054,-2.0301 z"/><path style="fill:#000;fill-opacity:1;stroke:none;stroke-width:3.20000005;stroke-linecap:round;stroke-linejoin:round;stroke-miterlimit:4;stroke-dasharray:none;stroke-opacity:1" id="rect5156-8-4-6-2" d="m 79.50264,1004.5061 0,7.1053 -2.03011,2.0206 -2.03012,-2.0206 0,-7.1053 2.03012,-2.0206 z"/><path style="fill:#000;fill-opacity:1;stroke:none;stroke-width:10;stroke-linejoin:miter;stroke-miterlimit:4;stroke-dasharray:none;stroke-opacity:1" id="rect4247-6-83" d="m 13.24255,981.43559 c -2.35,0 -4.24172,1.8923 -4.24172,4.2423 l 0,32.76921 c 0,2.3499 1.89172,4.2422 4.24172,4.2422 l 75.23619,0 c 2.34999,0 4.24229,-1.8923 4.24229,-4.2422 l 0,-32.76921 c 0,-3.0074 -1.8923,-4.2423 -4.24229,-4.2423 z m 0.41937,3.3706 74.32581,0 c 0.59267,0 1.06982,0.4772 1.06982,1.0698 l 0,32.44171 c 0,0.5926 -0.47715,1.0698 -1.06982,1.0698 l -74.32581,0 c -0.59267,0 -1.06981,-0.4772 -1.06981,-1.0698 l 0,-32.44171 c 0,-0.5926 0.47714,-1.0698 1.06981,-1.0698 z"/><path style="fill:#000;fill-opacity:1;stroke:none;stroke-width:3.20000005;stroke-linecap:round;stroke-linejoin:round;stroke-miterlimit:4;stroke-dasharray:none;stroke-opacity:1" id="rect5156-40" d="m 46.59019,988.21619 7.10542,0 2.02054,2.0301 -2.02054,2.0301 -7.10542,0 -2.02055,-2.0301 z"/><path style="fill:#000;fill-opacity:1;stroke:none;stroke-width:3.20000005;stroke-linecap:round;stroke-linejoin:round;stroke-miterlimit:4;stroke-dasharray:none;stroke-opacity:1" id="rect5156-8-52" d="m 58.11466,992.67109 0,7.1054 -2.03013,2.02061 -2.03011,-2.02061 0,-7.1054 2.03011,-2.0204 z"/><path style="fill:#000;fill-opacity:1;stroke:none;stroke-width:3.20000005;stroke-linecap:round;stroke-linejoin:round;stroke-miterlimit:4;stroke-dasharray:none;stroke-opacity:1" id="rect5156-0-4" d="m 46.57388,1000.1186 7.10543,0 2.02054,2.0302 -2.02054,2.0301 -7.10543,0 -2.02053,-2.0301 z"/><path style="fill:#000;fill-opacity:1;stroke:none;stroke-width:3.20000005;stroke-linecap:round;stroke-linejoin:round;stroke-miterlimit:4;stroke-dasharray:none;stroke-opacity:1" id="rect5156-8-5-2" d="m 42.18436,1004.5402 0,7.1054 2.03012,2.0206 2.03012,-2.0206 0,-7.1054 -2.03012,-2.0206 z"/><path style="fill:#000;fill-opacity:1;stroke:none;stroke-width:3.20000005;stroke-linecap:round;stroke-linejoin:round;stroke-miterlimit:4;stroke-dasharray:none;stroke-opacity:1" id="rect5156-0-0-3" d="m 53.68996,1012.058 -7.10542,0 -2.02055,2.0301 2.02055,2.0301 7.10542,0 2.02054,-2.0301 z"/><path style="fill:#000;fill-opacity:1;stroke:none;stroke-width:3.20000005;stroke-linecap:round;stroke-linejoin:round;stroke-miterlimit:4;stroke-dasharray:none;stroke-opacity:1" id="rect5156-8-6" d="m 36.21451,992.39179 0,7.1055 -2.03013,2.02051 -2.03012,-2.02051 0,-7.1055 2.03012,-2.0204 z"/><path style="fill:#000;fill-opacity:1;stroke:none;stroke-width:3.20000005;stroke-linecap:round;stroke-linejoin:round;stroke-miterlimit:4;stroke-dasharray:none;stroke-opacity:1" id="rect5156-8-4-6-2-82" d="m 36.12849,1004.3018 0,7.1054 -2.03011,2.0205 -2.03012,-2.0205 0,-7.1054 2.03012,-2.0206 z"/></g></svg>