<svg xmlns="http://www.w3.org/2000/svg" xmlns:svg="http://www.w3.org/2000/svg" id="svg2" width="100" height="100" version="1.1" viewBox="0 0 100 100"><metadata id="metadata7"/><g id="layer1" transform="translate(0,-952.36217)"><path style="color:#000;font-style:normal;font-variant:normal;font-weight:400;font-stretch:normal;font-size:medium;line-height:normal;font-family:sans-serif;text-indent:0;text-align:start;text-decoration:none;text-decoration-line:none;text-decoration-style:solid;text-decoration-color:#000;letter-spacing:normal;word-spacing:normal;text-transform:none;direction:ltr;block-progression:tb;writing-mode:lr-tb;baseline-shift:baseline;text-anchor:start;white-space:normal;clip-rule:nonzero;display:inline;overflow:visible;visibility:visible;opacity:1;isolation:auto;mix-blend-mode:normal;color-interpolation:sRGB;color-interpolation-filters:linearRGB;solid-color:#000;solid-opacity:1;fill:#000;fill-opacity:1;fill-rule:nonzero;stroke:none;stroke-width:3.69111967;stroke-linecap:round;stroke-linejoin:round;stroke-miterlimit:4;stroke-dasharray:none;stroke-dashoffset:0;stroke-opacity:1;color-rendering:auto;image-rendering:auto;shape-rendering:auto;text-rendering:auto;enable-background:accumulate" id="rect4687" d="m 26.4673,968.22669 0,5.2509 -5.74068,0 c -3.79718,0 -6.90855,3.1114 -6.90855,6.9086 l 0,47.94491 c 0,3.7972 3.11137,6.9068 6.90855,6.9068 l 58.28588,0 c 3.79719,0 6.90855,-3.1096 6.90855,-6.9068 l 0,-47.94491 c 0,-3.7972 -3.11136,-6.9086 -6.90855,-6.9086 l -7.16807,0 0,-4.9566 -9.64639,0 0,4.9566 -26.08436,0 0,-5.2509 -9.64638,0 z m -9.19495,16.3631 65.19443,0 0,43.74131 c 0,1.9433 -1.5109,3.4543 -3.45428,3.4543 l -58.28588,0 c -1.94337,0 -3.45427,-1.511 -3.45427,-3.4543 l 0,-43.74131 z m 48.9703,4.4284 0,10.9495 10.69912,0 0,-10.9495 -10.69912,0 z m -14.70535,0.084 0,10.94761 10.69912,0 0,-10.94761 -10.69912,0 z m -14.73825,0.01 0,10.94771 10.70095,0 0,-10.94771 -10.70095,0 z m 29.53498,14.18811 0,10.9477 10.69912,0 0,-10.9477 -10.69912,0 z m -29.45822,0.3144 0,10.9495 10.69913,0 0,-10.9495 -10.69913,0 z m 14.77481,0 0,10.9477 10.69911,0 0,-10.9477 -10.69911,0 z m -29.60991,0.5922 0,10.9476 10.69911,0 0,-10.9476 -10.69911,0 z m 0.0841,14.115 0,10.9495 10.69912,0 0,-10.9495 -10.69912,0 z m 15.04346,0.044 0,10.9477 10.69912,0 0,-10.9477 -10.69912,0 z"/></g></svg>