<svg xmlns="http://www.w3.org/2000/svg" xmlns:svg="http://www.w3.org/2000/svg" id="svg2" width="100" height="100" version="1.1" viewBox="0 0 100 100"><metadata id="metadata7"/><g id="layer1" transform="translate(0,-952.36217)"><path style="fill:#ccc;fill-opacity:1;stroke:none;stroke-width:10;stroke-linejoin:miter;stroke-miterlimit:4;stroke-dasharray:none;stroke-opacity:1" id="rect4222-9-8" d="m 8.98114,979.59099 c -2.06464,0 -3.72679,1.6621 -3.72679,3.7267 l 0,32.50931 c 0,2.0647 1.66215,3.7268 3.72679,3.7268 l 74.8692,0 c 2.06464,0 3.72679,-1.6621 3.72679,-3.7268 l 0,-32.50931 c 0,-2.0646 -1.66215,-3.7267 -3.72679,-3.7267 z m 1.01568,2.8801 49.49054,0 0,34.20251 -49.49054,0 c -0.82255,0 -1.48489,-0.6623 -1.48489,-1.4849 l 0,-31.23261 c 0,-0.8226 0.66234,-1.485 1.48489,-1.485 z m 56.29014,13.7252 14.6899,0 -7.34495,9.15081 z"/><path style="color:#000;font-style:normal;font-variant:normal;font-weight:400;font-stretch:normal;font-size:medium;line-height:normal;font-family:sans-serif;text-indent:0;text-align:start;text-decoration:none;text-decoration-line:none;text-decoration-style:solid;text-decoration-color:#000;letter-spacing:normal;word-spacing:normal;text-transform:none;direction:ltr;block-progression:tb;writing-mode:lr-tb;baseline-shift:baseline;text-anchor:start;white-space:normal;clip-rule:nonzero;display:inline;overflow:visible;visibility:visible;opacity:1;isolation:auto;mix-blend-mode:normal;color-interpolation:sRGB;color-interpolation-filters:linearRGB;solid-color:#000;solid-opacity:1;fill:#ccc;fill-opacity:1;fill-rule:nonzero;stroke:none;stroke-width:3.20000005;stroke-linecap:round;stroke-linejoin:round;stroke-miterlimit:4;stroke-dasharray:none;stroke-dashoffset:0;stroke-opacity:1;color-rendering:auto;image-rendering:auto;shape-rendering:auto;text-rendering:auto;enable-background:accumulate" id="rect5057" d="m 86.375,986.51259 0,3.2011 3.75,0 c 0.80328,0 1.40039,0.5953 1.40039,1.3985 l 0,30.87501 c 0,0.8033 -0.59711,1.4004 -1.40039,1.4004 l -72.75,0 c -0.80328,0 -1.34696,-0.5989 -1.40039,-1.4004 l 0,-3.75 -3.19922,0 0,3.75 c 0,2.5208 2.07889,4.6015 4.59961,4.6015 l 72.75,0 c 2.52072,0 4.59961,-2.0807 4.59961,-4.6015 l 0,-30.87501 c 0,-2.5207 -2.07889,-4.5996 -4.59961,-4.5996 z"/></g></svg>