<svg xmlns="http://www.w3.org/2000/svg" xmlns:svg="http://www.w3.org/2000/svg" id="svg2" width="100" height="100" version="1.1" viewBox="0 0 100 100"><metadata id="metadata7"/><g id="layer1" transform="translate(0,-952.36217)"><path style="fill:#000" id="path4-6-0" d="m 28.6525,973.25186 c -6.4431,0 -11.644,5.20089 -11.644,11.644 l 0,34.93204 c 0,6.4429 5.2009,11.6446 11.644,11.6446 l 42.6951,0 c 6.4431,0 11.644,-5.2016 11.644,-11.6446 l 0,-34.93204 c 0,-6.4431 -5.2009,-11.644 -11.644,-11.644 l -42.6951,0 z m -7.7624,11.644 17.6602,0 0,11.64397 -17.6602,0 0,-11.64397 z m 21.5418,0 17.1875,0 0,11.64397 -17.1875,0 0,-11.64397 z m 21.069,0 15.6097,0 0,11.64397 -15.6097,0 0,-11.64397 z m -42.6108,15.52544 17.6602,0 0,11.6441 -17.6602,0 0,-11.6441 z m 21.5418,0 17.1875,0 0,11.6441 -17.1875,0 0,-11.6441 z m 21.069,0 15.6097,0 0,11.6441 -15.6097,0 0,-11.6441 z m -42.6108,15.5256 17.6602,0 0,11.6441 -9.8978,0 c -4.2695,0 -7.7624,-3.4937 -7.7624,-7.7631 l 0,-3.881 z m 21.5418,0 17.1875,0 0,11.6441 -17.1875,0 0,-11.6441 z m 21.069,0 15.6097,0 0,3.881 c 0,4.2694 -3.4936,7.7631 -7.763,7.7631 l -7.8467,0 0,-11.6441 z"/><path style="fill:#fff;fill-opacity:1;stroke:none;stroke-width:3.5;stroke-linecap:round;stroke-linejoin:round;stroke-miterlimit:4;stroke-dasharray:none;stroke-opacity:1" id="rect4825-1" d="m 53.901,1003.7554 8.9859,9.8915 -6.13,1.8808 -5.3638,-4.6671 z"/><g id="g4-8-8" transform="matrix(0.54847954,0.12282856,-0.12282856,0.54847954,47.3894,963.09389)" style="fill:#fc0"><path style="fill:#fc0" id="path6-7-6" d="M 75,6.1 C 66.1,1.1 61.2,3.6 61.2,3.6 L 43.8,34.8 23.9,70.4 25.5,94.7 47,83.3 67,47.7 84.4,16.5 C 84.4,16.5 83.9,11 75,6.1 Z M 44.9,81 36.7,86.4 C 35.5,85.2 34.2,84.1 32.1,82.9 30,81.7 28.3,81.2 26.7,80.8 L 27,71 44.9,81 Z"/></g></g></svg>