<svg xmlns="http://www.w3.org/2000/svg" xmlns:svg="http://www.w3.org/2000/svg" id="svg2" width="100" height="100" version="1.1" viewBox="0 0 100 100"><metadata id="metadata7"/><g id="layer1" transform="translate(0,-952.36217)"><path id="path6-7-3-4-4-6" d="m 30.3825,962.51129 c -3.7091,0 -6.6757,2.9667 -6.6757,6.6758 l 0,21.0996 0,45.25201 c 0,3.7091 2.9666,6.6757 6.6757,6.6757 l 39.0704,0 c 3.7091,0 6.6757,-2.9666 6.6757,-6.6757 l 0,-66.35161 c 0,-3.7091 -3.0491,-6.6758 -6.6757,-6.6758 l -39.0704,0 z m 0.3301,8.9004 38.4102,0 0,54.81251 -38.4102,0 0,-54.81251 z m 19.2051,59.51171 c 1.8958,0 3.4609,1.5652 3.4609,3.461 0,1.8957 -1.5651,3.4629 -3.4609,3.4629 -1.8958,0 -3.4609,-1.5672 -3.4609,-3.4629 0,-1.8958 1.5651,-3.461 3.4609,-3.461 z" style="fill:#000"/><path style="fill:#fff;fill-opacity:1;stroke:none;stroke-width:3.5;stroke-linecap:round;stroke-linejoin:round;stroke-miterlimit:4;stroke-dasharray:none;stroke-opacity:1" id="rect4825-1" d="m 51.96777,1001.4758 8.985899,9.8915 -6.129999,1.8808 -5.3638,-4.6671 z"/><g id="g4-8-8" transform="matrix(0.54847954,0.12282856,-0.12282856,0.54847954,45.45617,960.81428)" style="fill:#fc0"><path style="fill:#fc0" id="path6-7-6" d="M 75,6.1 C 66.1,1.1 61.2,3.6 61.2,3.6 L 43.8,34.8 23.9,70.4 25.5,94.7 47,83.3 67,47.7 84.4,16.5 C 84.4,16.5 83.9,11 75,6.1 Z M 44.9,81 36.7,86.4 C 35.5,85.2 34.2,84.1 32.1,82.9 30,81.7 28.3,81.2 26.7,80.8 L 27,71 Z"/></g></g></svg>