<svg xmlns="http://www.w3.org/2000/svg" xmlns:svg="http://www.w3.org/2000/svg" id="svg2" width="100" height="100" version="1.1" viewBox="0 0 100 100"><metadata id="metadata7"/><g id="layer1" transform="translate(0,-952.36217)"><path style="fill:#000;fill-opacity:1;stroke:none;stroke-width:10;stroke-linejoin:miter;stroke-miterlimit:4;stroke-dasharray:none;stroke-opacity:1" id="rect4247-6-8" d="m 9.44807,981.83188 c -2.35,0 -4.24024,1.8922 -4.24024,4.2422 l 0,7.5605 3.58985,0 0,-7.3613 c 0,-0.5926 0.47764,-1.0703 1.07031,-1.0703 l 6.625,0 0,-3.3711 -7.04492,0 z m 21.16992,0 0,3.3711 11.70898,0 0,-3.3711 -11.70898,0 z m 25.83398,0 0,3.3711 11.95704,0 0,-3.3711 -11.95704,0 z m 26.08204,0 0,3.3711 6.66015,0 c 0.59267,0 1.07031,0.4777 1.07031,1.0703 l 0,7.3613 3.66211,0 0,-7.5605 c 0,-3.0074 -1.89219,-4.2422 -4.24218,-4.2422 l -7.15039,0 z m -77.32618,28.36912 0,8.6426 c 0,2.3499 1.89024,4.2422 4.24024,4.2422 l 7.04492,0 0,-3.3008 -6.625,0 c -0.59267,0 -1.07031,-0.4777 -1.07031,-1.0703 l 0,-8.5137 -3.58985,0 z m 85.05664,0 0,8.5137 c 0,0.5926 -0.47764,1.0703 -1.07031,1.0703 l -6.66015,0 0,3.3008 7.15039,0 c 2.34999,0 4.24218,-1.8923 4.24218,-4.2422 l 0,-8.6426 -3.66211,0 z m -59.64648,9.584 0,3.3008 11.70898,0 0,-3.3008 -11.70898,0 z m 25.83398,0 0,3.3008 11.95704,0 0,-3.3008 -11.95704,0 z"/><g style="font-style:normal;font-weight:400;font-size:110.19272614px;line-height:125%;font-family:sans-serif;letter-spacing:0;word-spacing:0;fill:#000;fill-opacity:1;stroke:none;stroke-width:1px;stroke-linecap:butt;stroke-linejoin:miter;stroke-opacity:1" id="flowRoot4269-9" transform="matrix(0.29575903,0,0,0.29575903,7.49406,700.48528)"><path id="path4216-7" d="m 56.520641,982.45114 0,17.11 20.392111,0 0,7.69416 -20.392111,0 0,32.7134 q 0,7.3713 1.990786,9.4697 2.044592,2.0984 8.232172,2.0984 l 10.169153,0 0,8.286 -10.169153,0 q -11.460474,0 -15.818683,-4.2506 -4.358208,-4.3044 -4.358208,-15.6035 l 0,-32.7134 -7.263681,0 0,-7.69416 7.263681,0 0,-17.11 9.953933,0 z"/></g></g></svg>