<svg xmlns="http://www.w3.org/2000/svg" xmlns:svg="http://www.w3.org/2000/svg" id="svg2" width="100" height="100" version="1.1" viewBox="0 0 100 100"><metadata id="metadata7"/><g id="layer1" transform="translate(0,-952.36217)"><path style="fill:#000;fill-opacity:1;stroke:none;stroke-width:3.5;stroke-linecap:round;stroke-linejoin:round;stroke-miterlimit:4;stroke-dasharray:none;stroke-opacity:1" id="rect4270-9-1-2-2" d="m 25.00018,965.99387 c -1.79095,0 -3.23274,1.44179 -3.23274,3.23274 l 0,66.27109 c 0,1.791 1.44179,3.2328 3.23274,3.2328 l 49.99968,0 c 1.79093,0 3.23274,-1.4418 3.23274,-3.2328 l 0,-54.12223 -12.15603,0 c -1.79094,0 -3.23273,-1.4418 -3.23273,-3.23273 l 0,-12.14887 z m 40.55053,0.12092 0,11.09906 c 0,0.89547 0.72091,1.61638 1.61638,1.61638 l 11.09907,0 z"/><rect style="fill:#009257;fill-opacity:1;stroke:none;stroke-width:3.5;stroke-linecap:round;stroke-linejoin:round;stroke-miterlimit:4;stroke-dasharray:none;stroke-opacity:1" id="rect4299-3-9-8-1" width="51.972" height="25.14" x="36.061" y="1004.748"/><g style="font-style:normal;font-weight:400;font-size:16.62758636px;line-height:125%;font-family:sans-serif;letter-spacing:0;word-spacing:0;fill:#fff;fill-opacity:1;stroke:none;stroke-width:1px;stroke-linecap:butt;stroke-linejoin:miter;stroke-opacity:1" id="flowRoot4447-8-1" transform="translate(4.24263,0.35356825)"><path style="font-style:normal;font-variant:normal;font-weight:700;font-stretch:normal;font-family:sans-serif;-inkscape-font-specification:'sans-serif Bold'" id="path4539-6" d="m 49.254906,1011.9488 0,2.5656 q -0.998629,-0.4466 -1.948545,-0.6739 -0.949916,-0.2273 -1.794285,-0.2273 -1.120414,0 -1.656264,0.3085 -0.53585,0.3085 -0.53585,0.958 0,0.4872 0.357234,0.7632 0.365352,0.2679 1.315268,0.4628 l 1.331506,0.2679 q 2.021615,0.406 2.874104,1.2341 0.852488,0.8281 0.852488,2.3545 0,2.0054 -1.193484,2.9877 -1.185365,0.9743 -3.629165,0.9743 -1.152889,0 -2.313898,-0.2192 -1.161008,-0.2192 -2.322016,-0.6495 l 0,-2.6387 q 1.161008,0.6171 2.240827,0.9337 1.087938,0.3085 2.094686,0.3085 1.022986,0 1.566955,-0.341 0.543969,-0.341 0.543969,-0.9742 0,-0.5684 -0.373471,-0.8769 -0.365352,-0.3085 -1.469528,-0.5521 l -1.209722,-0.2679 q -1.818642,-0.3897 -2.663012,-1.2422 -0.83625,-0.8525 -0.83625,-2.2977 0,-1.8105 1.169127,-2.7847 1.169127,-0.9743 3.361241,-0.9743 0.998629,0 2.054091,0.1542 1.055462,0.1462 2.183994,0.4466 z"/><path style="font-style:normal;font-variant:normal;font-weight:700;font-stretch:normal;font-family:sans-serif;-inkscape-font-specification:'sans-serif Bold'" id="path4541-9" d="m 52.802883,1011.5672 3.125791,0 0,4.6197 4.611558,0 0,-4.6197 3.125791,0 0,12.1216 -3.125791,0 0,-5.1393 -4.611558,0 0,5.1393 -3.125791,0 0,-12.1216 z"/><path style="font-style:normal;font-variant:normal;font-weight:700;font-stretch:normal;font-family:sans-serif;-inkscape-font-specification:'sans-serif Bold'" id="path4543-1" d="m 66.734982,1011.5672 5.188002,0 q 2.313898,0 3.547976,1.0311 1.242198,1.023 1.242198,2.9228 0,1.908 -1.242198,2.9391 -1.234078,1.023 -3.547976,1.023 l -2.06221,0 0,4.2056 -3.125792,0 0,-12.1216 z m 3.125792,2.2652 0,3.3856 1.729334,0 q 0.909321,0 1.404576,-0.4384 0.495255,-0.4466 0.495255,-1.2585 0,-0.8119 -0.495255,-1.2503 -0.495255,-0.4384 -1.404576,-0.4384 l -1.729334,0 z"/></g></g></svg>