<svg xmlns="http://www.w3.org/2000/svg" xmlns:svg="http://www.w3.org/2000/svg" id="svg2" width="100" height="100" version="1.1" viewBox="0 0 100 100"><metadata id="metadata7"/><g id="layer1" transform="translate(0,-952.36217)"><path style="fill:#000;fill-opacity:1;stroke:none;stroke-width:3.5;stroke-linecap:round;stroke-linejoin:round;stroke-miterlimit:4;stroke-dasharray:none;stroke-opacity:1" id="rect4270-9-1-20" d="m 25.000191,965.99386 c -1.79095,0 -3.23274,1.44179 -3.23274,3.23274 l 0,66.2711 c 0,1.791 1.44179,3.2328 3.23274,3.2328 l 49.99968,0 c 1.79093,0 3.23274,-1.4418 3.23274,-3.2328 l 0,-54.12224 -12.15603,0 c -1.79094,0 -3.23273,-1.4418 -3.23273,-3.23273 l 0,-12.14887 z m 40.55053,0.12092 0,11.09906 c 0,0.89547 0.72091,1.61638 1.61638,1.61638 l 11.09907,0 z"/><rect style="fill:#2070b8;fill-opacity:1;stroke:none;stroke-width:3.5;stroke-linecap:round;stroke-linejoin:round;stroke-miterlimit:4;stroke-dasharray:none;stroke-opacity:1" id="rect4299-3-9-3" width="51.972" height="25.14" x="36.061" y="1004.748"/><g style="font-style:normal;font-weight:400;font-size:40px;line-height:125%;font-family:sans-serif;letter-spacing:0;word-spacing:0;fill:#fff;fill-opacity:1;stroke:none;stroke-width:1px;stroke-linecap:butt;stroke-linejoin:miter;stroke-opacity:1" id="flowRoot4447-3" transform="matrix(0.41568968,0,0,0.41568968,-451.2214,1579.1047)"><path style="font-style:normal;font-variant:normal;font-weight:700;font-stretch:normal;font-family:sans-serif;-inkscape-font-specification:'sans-serif Bold'" id="path4532-4" d="m 1183.6719,-1365.2902 8.3984,0 10.6055,20 0,-20 7.1289,0 0,29.1602 -8.3984,0 -10.6055,-20 0,20 -7.1289,0 0,-29.1602 z"/><path style="font-style:normal;font-variant:normal;font-weight:700;font-stretch:normal;font-family:sans-serif;-inkscape-font-specification:'sans-serif Bold'" id="path4534-9" d="m 1243.3984,-1338.298 q -2.8125,1.3672 -5.8398,2.0508 -3.0273,0.6836 -6.25,0.6836 -7.2852,0 -11.543,-4.0625 -4.2578,-4.0821 -4.2578,-11.0547 0,-7.0508 4.336,-11.0938 4.3359,-4.0429 11.875,-4.0429 2.9101,0 5.5664,0.5468 2.6757,0.5469 5.039,1.6211 l 0,6.0352 q -2.4414,-1.3867 -4.8633,-2.0703 -2.4023,-0.6836 -4.8242,-0.6836 -4.4922,0 -6.9336,2.5195 -2.4218,2.5 -2.4218,7.168 0,4.6289 2.3437,7.1484 2.3438,2.5196 6.6602,2.5196 1.1718,0 2.1679,-0.1368 1.0157,-0.1562 1.8164,-0.4687 l 0,-5.6641 -4.5898,0 0,-5.039 11.7187,0 0,14.0234 z"/><path style="font-style:normal;font-variant:normal;font-weight:700;font-stretch:normal;font-family:sans-serif;-inkscape-font-specification:'sans-serif Bold'" id="path4536-0" d="m 1247.5195,-1365.2902 7.2071,0 5.039,21.1914 5,-21.1914 7.2461,0 5,21.1914 5.0391,-21.1914 7.1484,0 -6.875,29.1602 -8.6719,0 -5.2929,-22.168 -5.2344,22.168 -8.6719,0 -6.9336,-29.1602 z"/></g></g></svg>