<svg xmlns="http://www.w3.org/2000/svg" xmlns:svg="http://www.w3.org/2000/svg" id="svg2" width="100" height="100" version="1.1" viewBox="0 0 100 100"><metadata id="metadata7"/><g id="layer1" transform="translate(0,-952.36217)"><g id="g4-2-9" transform="matrix(0.98625404,0,0,0.98625404,1.0617002,11.969565)"><path style="color:#000;text-indent:0;text-transform:none;direction:ltr;block-progression:tb;baseline-shift:baseline;display:inline;overflow:visible;visibility:visible;fill:#000;fill-opacity:1;stroke:none;stroke-opacity:1;marker:none;enable-background:accumulate" id="path6-4-4" d="m 48,968.36217 c -11.3794,0 -21.069,6.4951 -25.4062,16.3125 C 11.9832,987.22772 4,997.01309 4,1008.3622 c 0,13.2614 10.7386,24 24,24 l 41.4688,0 c 2.82,2.4811 6.4947,4 10.5312,4 8.8129,0 16,-7.1871 16,-16 0,-4.0522 -1.5329,-7.7384 -4.0312,-10.5625 -0.2583,-10.1574 -7.4346,-18.58458 -17,-20.81253 C 71.7334,977.09324 60.8966,968.36217 48,968.36217 Z m 0,4 c 11.4859,0 21.0831,7.96602 23.4688,18.6875 0.16426,0.79635 0.794257,1.41401 1.5937,1.5625 7.1222,1.22558 12.8319,6.63742 14.4687,13.62503 -2.2436,-1.2014 -4.8165,-1.875 -7.5312,-1.875 -8.8129,0 -16,7.1871 -16,16 0,2.9089 0.7902,5.6453 2.1562,8 l -38.1562,0 c -11.1146,0 -20,-8.8854 -20,-20 0,-9.77926 7.1782,-18.29845 16.375,-20.06253 0.66435,-0.1314 1.21709,-0.59005 1.4688,-1.21875 C 29.3661,978.21235 37.8049,972.36217 48,972.36217 Z m 32,36.00003 c 6.6511,0 12,5.3489 12,12 0,6.6511 -5.3489,12 -12,12 -6.6511,0 -12,-5.3489 -12,-12 0,-6.6511 5.3489,-12 12,-12 z" display="inline" overflow="visible" visibility="visible"/></g><polyline id="path34-5-0" points="117.4 132.4 124 123.4 118.6 123.4 114.7 128.7 117.4 132.4" class="st0" transform="matrix(1.3559082,0,0,1.3559082,-108.2121,818.57608)"/><polyline id="path36-8-3" points="115.9 134.5 107.7 123.4 102.2 123.4 110.4 134.5 101.5 146.6 107 146.6 115.9 134.5" class="st1" transform="matrix(1.3559082,0,0,1.3559082,-108.2121,818.57608)" style="fill:#2070b8;fill-opacity:1"/><polyline id="path38-1-7" points="117.4 136.6 114.7 140.4 119.2 146.6 124.8 146.6 117.4 136.6" class="st0" transform="matrix(1.3559082,0,0,1.3559082,-108.2121,818.57608)"/><path style="color:#000;text-indent:0;text-transform:none;direction:ltr;baseline-shift:baseline;display:inline;overflow:visible;visibility:visible;fill:red;fill-opacity:1;stroke:none;stroke-opacity:1;marker:none;enable-background:accumulate" id="path6-4-7-6-8" d="m 80.079843,1010.3205 c -1.0896,0 -1.9727,0.8833 -1.9727,1.9727 v 3.9785 h -3.9785 c -1.0894,0 -1.9726,0.8831 -1.9726,1.9727 0,1.0896 0.8832,1.9726 1.9726,1.9726 h 3.9785 v 3.9785 c 0,1.0894 0.8831,1.9727 1.9727,1.9727 1.0896,0 1.9727,-0.8833 1.9727,-1.9727 v -3.9785 h 3.9785 c 1.0894,0 1.9726,-0.883 1.9726,-1.9726 0,-1.0896 -0.8832,-1.9727 -1.9726,-1.9727 h -3.9785 v -3.9785 c 0,-1.0894 -0.8831,-1.9727 -1.9727,-1.9727 z"/></g></svg>