<svg xmlns="http://www.w3.org/2000/svg" xmlns:svg="http://www.w3.org/2000/svg" id="svg2" width="100" height="100" version="1.1" viewBox="0 0 100 100"><metadata id="metadata7"/><g id="layer1" transform="translate(0,-952.36217)"><path style="fill:#000" id="path4365" d="m 18.353209,1031.547 c -2.10393,-0.5222 -3.73218,-2.203 -4.18083,-4.3159 -0.2123,-0.9998 -0.2123,-36.36513 0,-37.36483 0.46007,-2.1666 2.18739,-3.8939 4.35396,-4.354 1.00598,-0.2136 61.94377,-0.2136 62.94978,0 2.16653,0.4601 3.89387,2.1874 4.35395,4.354 0.21229,0.9997 0.21229,36.36503 0,37.36483 -0.46008,2.1666 -2.18742,3.8939 -4.35395,4.3539 -1.06864,0.227 -62.20376,0.1901 -63.12291,-0.039 z m -4.30331,-51.71513 c 0.0389,-5.2101 0.0412,-5.2495 0.34571,-5.7391 0.16858,-0.2712 0.52838,-0.6309 0.79952,-0.7995 l 0.49299,-0.3066 11.53596,0 11.53595,0 0.78441,0.4011 c 0.47426,0.2426 0.94974,0.6181 1.20268,0.9497 0.34416,0.4512 3.39208,7.7108 3.39114,8.077 0,0.055 -5.71187,0.1008 -12.69277,0.1019 -13.94501,0 -13.61177,-0.015 -15.16428,0.8118 -0.42035,0.2241 -1.10316,0.7094 -1.51737,1.0786 l -0.75312,0.6712 0.0392,-5.2461 z"/></g></svg>