<svg xmlns="http://www.w3.org/2000/svg" xmlns:svg="http://www.w3.org/2000/svg" id="svg2" width="100" height="100" version="1.1" viewBox="0 0 100 100"><metadata id="metadata7"/><g id="layer1" transform="translate(0,-952.36217)"><path style="fill:#000" id="path4365-8" d="m 18.3532,1031.547 c -2.1039,-0.5222 -3.7322,-2.203 -4.1808,-4.3159 -0.2123,-0.9998 -0.2123,-36.36511 0,-37.36481 0.4601,-2.1666 2.1874,-3.8939 4.3539,-4.354 1.006,-0.2136 61.9438,-0.2136 62.9498,0 2.1666,0.4601 3.8939,2.1874 4.354,4.354 0.2123,0.9997 0.2123,36.36501 0,37.36481 -0.4601,2.1666 -2.1874,3.8939 -4.354,4.3539 -1.0686,0.227 -62.2037,0.1901 -63.1229,-0.039 z m -4.3033,-52.48181 c 0.039,-5.2101 0.041,-5.2495 0.3457,-5.7391 0.1686,-0.2712 0.5284,-0.6309 0.7995,-0.7995 l 0.493,-0.3066 11.536,0 11.5359,0 0.7844,0.4011 c 0.4743,0.2426 0.9498,0.6181 1.2027,0.9497 0.3442,0.4512 3.3921,7.7108 3.3912,8.077 0,0.055 -5.7119,0.1008 -12.6928,0.1019 -13.945,0 -13.6118,-0.015 -15.1643,0.8118 -0.4203,0.2241 -1.1031,0.7094 -1.5174,1.0786 l -0.7531,0.6712 0.039,-5.2461 z"/></g></svg>