<svg xmlns="http://www.w3.org/2000/svg" xmlns:svg="http://www.w3.org/2000/svg" id="svg2" width="100" height="100" version="1.1" viewBox="0 0 100 100"><metadata id="metadata7"/><g id="layer1" transform="translate(0,-952.36217)"><g id="g6" transform="translate(-7.6293945e-7,950.36216)" style="fill:#ccc"><g id="g8" style="fill:#ccc"><circle id="circle10" cx="50" cy="53.5" r="11.5" style="fill:#ccc"/></g><g id="g12" style="fill:#ccc"><path id="path14" d="m 69.8,28.5 -2.3,0 c -0.2,0 -0.5,-0.1 -0.7,-0.3 l -7.2,-6.8 c -1,-0.9 -2.3,-1.5 -3.7,-1.5 l -5.3,0 -1,0 -5.3,0 c -1.4,0 -2.7,0.5 -3.7,1.5 l -7.2,6.8 c -0.2,0.2 -0.4,0.3 -0.7,0.3 l -2.3,0 c -7.6,0 -13.8,6.2 -13.8,13.8 l 0,25 c 0,7.1 5.7,12.8 12.8,12.8 l 20.2,0 1,0 20.2,0 c 7.1,0 12.8,-5.7 12.8,-12.8 l 0,-25 C 83.5,34.7 77.3,28.5 69.8,28.5 Z M 50,72 C 39.8,72 31.5,63.7 31.5,53.5 31.5,43.3 39.8,35 50,35 60.2,35 68.5,43.3 68.5,53.5 68.5,63.7 60.2,72 50,72 Z" style="fill:#ccc"/></g></g></g></svg>