<svg xmlns="http://www.w3.org/2000/svg" xmlns:svg="http://www.w3.org/2000/svg" id="svg2" width="100" height="100" version="1.1" viewBox="0 0 100 100"><metadata id="metadata7"/><g id="layer1" transform="translate(0,-952.36217)"><path style="fill:#000;fill-opacity:1;stroke:none;stroke-width:10;stroke-linejoin:miter;stroke-miterlimit:4;stroke-dasharray:none;stroke-opacity:1" id="path4301" d="M 50,972.48716 A 29.874273,29.874273 0 0 0 20.125,1002.3622 29.874273,29.874273 0 0 0 50,1032.2372 29.874273,29.874273 0 0 0 79.875,1002.3622 29.874273,29.874273 0 0 0 50,972.48716 Z m 0,4.55664 A 25.318975,25.318975 0 0 1 75.31836,1002.3622 25.318975,25.318975 0 0 1 50,1027.6805 25.318975,25.318975 0 0 1 24.68164,1002.3622 25.318975,25.318975 0 0 1 50,977.0438 Z"/><circle style="fill:#000;fill-opacity:1;stroke:none;stroke-width:10;stroke-linejoin:miter;stroke-miterlimit:4;stroke-dasharray:none;stroke-opacity:1" id="path4301-2-6" cx="50" cy="1002.362" r="22.023"/></g></svg>