<svg xmlns="http://www.w3.org/2000/svg" xmlns:svg="http://www.w3.org/2000/svg" id="svg2" width="100" height="100" version="1.1" viewBox="0 0 100 100"><metadata id="metadata7"/><g id="layer1" transform="translate(0,-952.36217)"><path style="fill:#000" id="path4392-2" d="m 20.0324,1002.3972 0.034,-29.96841 6.7748,0 6.4624,0 0.069,11.0316 c 0.06,9.6042 0.096,11.4234 0.2765,11.5375 0.1276,0.082 6.6304,0.1318 16.3854,0.1331 15.6827,0 16.2439,-9e-4 16.5172,-0.2743 0.2718,-0.2719 0.2765,-0.8359 0.2765,-11.5742 l 0,-10.9228 6.3998,0 6.7749,0 0,30.00281 0,30.003 -2.5533,0 -5.8658,0 -0.039,-5.4738 -0.039,-5.4736 -0.3264,-0.2642 c -0.3185,-0.2579 2.4046,-0.2642 -21.1636,-0.2642 -21.6337,0 -20.9318,0.023 -21.2071,0.2152 l -0.3072,0.2152 0,5.5227 0,5.5227 -5.8774,0 -2.6273,0 0.034,-29.9683 z m 11.4593,25.0254 0,-3.7554 18.5438,0.034 18.5752,0.034 0.036,3.7216 0.036,4.9091 -18.6114,0 -18.5802,0 0,-4.9428 z m 5.2153,-44.62471 0,-10.4394 13.3285,0.035 13.5787,0.035 0.035,10.4042 0.035,9.0916 -13.6141,0 -13.364,0 0,-9.1268 z m 22.4007,7.3748 c 0.2279,-0.2278 0.3108,-1.5958 0.3108,-5.1279 0,-3.5319 -0.083,-4.9 -0.3108,-5.1279 -0.1309,-0.131 -0.4457,-0.3109 -0.5439,-0.3109 -0.098,0 -0.4129,0.1799 -0.5439,0.3109 -0.2278,0.2279 -0.3107,1.596 -0.3107,5.1279 0,3.5321 0.083,4.9001 0.3107,5.1279 0.131,0.131 0.4457,0.3108 0.5439,0.3108 0.098,0 0.413,-0.1798 0.5439,-0.3108 z"/></g></svg>