<svg xmlns="http://www.w3.org/2000/svg" xmlns:svg="http://www.w3.org/2000/svg" id="svg2" width="100" height="100" version="1.1" viewBox="0 0 100 100"><metadata id="metadata7"/><g id="layer1" transform="translate(0,-952.36217)"><path id="rect4658" d="m 71.60861,973.66168 c -0.23334,0.01 -0.46747,0.0254 -0.69803,0.0582 -2.76675,0.39327 -5.20002,2.40227 -5.96236,5.26433 l -9.21984,34.61079 c -0.0907,0.3446 -0.0806,0.708 0.0291,1.047 l 2.61762,8.2891 -0.7562,2.2396 c -0.78797,2.362 2.74986,3.551 3.54832,1.1924 l 0.75621,-2.2977 7.03849,-5.7878 c 0.29875,-0.2484 0.51232,-0.584 0.61077,-0.9598 l 7.9692,-29.86996 2.23952,0.61078 -3.57741,13.98968 c -0.62047,2.4044 2.98603,3.3351 3.6065,0.9308 l 3.66466,-14.28061 c 0.45299,-1.76157 -0.60421,-3.65005 -2.38494,-4.13003 l -2.61762,-0.69803 0.31993,-1.16339 c 1.01645,-3.81608 -1.25241,-7.78612 -5.06073,-8.81265 -0.71406,-0.19248 -1.42317,-0.26218 -2.12318,-0.23268 z m -44.79039,46.53542 c -2.89622,0 -5.75131,1.5182 -9.42343,4.0428 -2.42315,1.3131 -0.004,4.8411 2.0941,3.0539 3.45994,-2.3787 5.88768,-3.3738 7.32933,-3.3738 2.59429,0 3.68985,1.2682 5.49701,3.1411 1.80715,1.873 4.31875,4.3046 8.46363,4.3046 4.03455,0 8.32294,-1.7829 13.69888,-3.8683 2.58489,-0.7621 1.08754,-4.6357 -1.33789,-3.4611 -5.37763,2.0862 -9.50586,3.6065 -12.36099,3.6065 -2.81787,0 -4.003,-1.3204 -5.78785,-3.1702 -1.78484,-1.8499 -4.17654,-4.2755 -8.17279,-4.2755 z" style="fill:#ccc;fill-opacity:1;stroke:none;stroke-width:8;stroke-linecap:round;stroke-linejoin:round;stroke-miterlimit:4;stroke-dasharray:none;stroke-opacity:1"/></g></svg>