<svg xmlns="http://www.w3.org/2000/svg" xmlns:svg="http://www.w3.org/2000/svg" id="svg2" width="100" height="100" version="1.1" viewBox="0 0 100 100"><metadata id="metadata7"/><g id="layer1" transform="translate(0,-952.36217)"><path style="fill:#000;fill-opacity:1;stroke:none;stroke-width:10;stroke-linejoin:miter;stroke-miterlimit:4;stroke-dasharray:none;stroke-opacity:1" id="rect4222-2" d="m 8.80994,982.93409 c -2.06464,0 -3.72679,1.6621 -3.72679,3.7267 l 0,32.50931 c 0,2.0647 1.66215,3.7268 3.72679,3.7268 l 35.15904,0 c 2.06464,0 3.72679,-1.6621 3.72679,-3.7268 l 0,-32.50931 c 0,-2.0646 -1.66215,-3.7267 -3.72679,-3.7267 z m 1.01568,2.8801 9.78038,0 0,34.20251 -9.78038,0 c -0.82255,0 -1.48489,-0.6623 -1.48489,-1.4849 l 0,-31.23261 c 0,-0.8226 0.66234,-1.485 1.48489,-1.485 z m 16.57998,13.7252 14.6899,0 -7.34495,9.15081 z"/><path style="fill:#000;fill-opacity:1;stroke:none;stroke-width:10;stroke-linejoin:miter;stroke-miterlimit:4;stroke-dasharray:none;stroke-opacity:1" id="rect4222-2-6" d="m 55.36884,982.92049 c -2.06464,0 -3.72679,1.6621 -3.72679,3.7267 l 0,32.50931 c 0,2.0647 1.66215,3.7268 3.72679,3.7268 l 35.15904,0 c 2.06464,0 3.72679,-1.6621 3.72679,-3.7268 l 0,-32.50931 c 0,-2.0646 -1.66215,-3.7267 -3.72679,-3.7267 z m 1.01568,2.8801 9.78038,0 0,34.20251 -9.78038,0 c -0.82255,0 -1.48489,-0.6623 -1.48489,-1.4849 l 0,-31.23261 c 0,-0.8226 0.66234,-1.485 1.48489,-1.485 z m 16.57998,13.7252 14.6899,0 -7.34495,9.15081 z"/></g></svg>