<svg xmlns="http://www.w3.org/2000/svg" xmlns:svg="http://www.w3.org/2000/svg" id="svg2" width="100" height="100" version="1.1" viewBox="0 0 100 100"><metadata id="metadata7"/><g id="layer1" transform="translate(0,-952.36217)"><path style="color:#000;font-style:normal;font-variant:normal;font-weight:400;font-stretch:normal;font-size:medium;line-height:normal;font-family:sans-serif;text-indent:0;text-align:start;text-decoration:none;text-decoration-line:none;text-decoration-style:solid;text-decoration-color:#000;letter-spacing:normal;word-spacing:normal;text-transform:none;direction:ltr;block-progression:tb;writing-mode:lr-tb;baseline-shift:baseline;text-anchor:start;white-space:normal;clip-rule:nonzero;display:inline;overflow:visible;visibility:visible;opacity:1;isolation:auto;mix-blend-mode:normal;color-interpolation:sRGB;color-interpolation-filters:linearRGB;solid-color:#000;solid-opacity:1;fill:#000;fill-opacity:1;fill-rule:nonzero;stroke:none;stroke-width:3.5;stroke-linecap:round;stroke-linejoin:round;stroke-miterlimit:4;stroke-dasharray:none;stroke-dashoffset:0;stroke-opacity:1;color-rendering:auto;image-rendering:auto;shape-rendering:auto;text-rendering:auto;enable-background:accumulate" id="rect5509" d="m 49.075442,973.33767 0,3.5 26.67383,0 c 2.38477,0 4.25,1.8653 4.25,4.25 l 0,12.1348 3.5,0 0,-12.1348 c 0,-4.2632 -3.48677,-7.75 -7.75,-7.75 l -26.67383,0 z"/><path style="color:#000;font-style:normal;font-variant:normal;font-weight:400;font-stretch:normal;font-size:medium;line-height:normal;font-family:sans-serif;text-indent:0;text-align:start;text-decoration:none;text-decoration-line:none;text-decoration-style:solid;text-decoration-color:#000;letter-spacing:normal;word-spacing:normal;text-transform:none;direction:ltr;block-progression:tb;writing-mode:lr-tb;baseline-shift:baseline;text-anchor:start;white-space:normal;clip-rule:nonzero;display:inline;overflow:visible;visibility:visible;opacity:1;isolation:auto;mix-blend-mode:normal;color-interpolation:sRGB;color-interpolation-filters:linearRGB;solid-color:#000;solid-opacity:1;fill:#000;fill-opacity:1;fill-rule:nonzero;stroke:none;stroke-width:3.5;stroke-linecap:round;stroke-linejoin:round;stroke-miterlimit:4;stroke-dasharray:none;stroke-dashoffset:0;stroke-opacity:1;color-rendering:auto;image-rendering:auto;shape-rendering:auto;text-rendering:auto;enable-background:accumulate" id="rect5509-2" d="m 21.064752,969.43827 c -4.26323,0 -7.75,3.4868 -7.75,7.75 l 0,47.04303 c 0,4.2632 3.48677,7.75 7.75,7.75 l 58.71094,0 c 4.26323,0 7.75,-3.4868 7.75,-7.75 l 0,-31.06453 a 1.750175,1.750175 0 0 0 -1.75,-1.75 l -34.73047,0 0,-20.2285 a 1.750175,1.750175 0 0 0 -1.75,-1.75 l -28.23047,0 z m 0,3.5 26.48047,0 0,20.2285 a 1.750175,1.750175 0 0 0 1.75,1.75 l 34.73047,0 0,29.31453 c 0,2.3847 -1.86523,4.25 -4.25,4.25 l -58.71094,0 c -2.38477,0 -4.25,-1.8653 -4.25,-4.25 l 0,-47.04303 c 0,-2.3848 1.86523,-4.25 4.25,-4.25 z"/></g></svg>