<svg xmlns="http://www.w3.org/2000/svg" xmlns:svg="http://www.w3.org/2000/svg" id="svg2" width="100" height="100" version="1.1" viewBox="0 0 100 100"><metadata id="metadata7"/><g id="layer1" transform="translate(0,-952.36217)"><path id="path2" d="m 76.098773,965.10192 h -51.84042 c -6.34302,0 -11.43309,5.09007 -11.43309,11.43309 v 51.84049 c 0,6.343 5.16838,11.4331 11.43309,11.4331 h 51.84042 c 6.34302,0 11.43309,-5.1684 11.43309,-11.4331 v -51.84049 c 0.0783,-6.34302 -5.09007,-11.43309 -11.43309,-11.43309 z m -37.19668,24.74561 5.16838,5.16838 1.95772,1.95772 v -17.30625 -3.75885 h 8.14412 v 3.75885 17.30625 l 7.20441,-7.20441 5.79485,5.79485 -11.82463,11.90293 -5.16838,5.1684 v 0 0 l -1.48787,-1.4879 -4.30698,-4.307 v 0 l -6.10809,-6.108 -5.16838,-5.16843 z m 29.44411,39.15447 h -36.33528 v -8.2225 h 36.41359 v 8.2225 z" style="stroke-width:.78308803;fill:#ff0015;fill-opacity:1"/></g></svg>