<svg xmlns="http://www.w3.org/2000/svg" xmlns:svg="http://www.w3.org/2000/svg" id="svg2" width="100" height="100" version="1.1" viewBox="0 0 100 100"><metadata id="metadata7"/><g id="layer1" transform="translate(0,-952.36217)"><path style="fill:#000" id="path4-6-6-6" d="m 28.6729,973.27978 c -6.4369,0 -11.6328,5.19591 -11.6328,11.63283 l 0,34.89839 c 0,6.4369 5.1959,11.6336 11.6328,11.6336 l 42.6542,0 c 6.4369,0 11.6328,-5.1967 11.6328,-11.6336 l 0,-34.89839 c 0,-6.43692 -5.1959,-11.63283 -11.6328,-11.63283 l -42.6542,0 z m -7.7549,11.63283 17.6432,0 0,11.63281 -17.6432,0 0,-11.63281 z m 21.5211,0 17.1711,0 0,11.63281 -17.1711,0 0,-11.63281 z m 21.0488,0 15.5949,0 0,11.63281 -15.5949,0 0,-11.63281 z m -42.5699,15.51059 17.6432,0 0,11.6329 -17.6432,0 0,-11.6329 z m 21.5211,0 17.1711,0 0,11.6329 -17.1711,0 0,-11.6329 z m 21.0488,0 15.5949,0 0,11.6329 -15.5949,0 0,-11.6329 z m -42.5699,15.5107 17.6432,0 0,11.6328 -9.8883,0 c -4.2654,0 -7.7549,-3.4902 -7.7549,-7.7557 l 0,-3.8771 z m 21.5211,0 17.1711,0 0,11.6328 -17.1711,0 0,-11.6328 z m 21.0488,0 15.5949,0 0,3.8771 c 0,4.2655 -3.4903,7.7557 -7.7557,7.7557 l -7.8392,0 0,-11.6328 z"/><circle style="fill:#fff;fill-opacity:1;stroke:none;stroke-width:6;stroke-linecap:round;stroke-linejoin:round;stroke-miterlimit:4;stroke-dasharray:none;stroke-opacity:1" id="path4310-2" cx="70.045" cy="1013.65" r="21.365"/><path id="path6-5-9" d="m 70.2624,991.39578 c 12.5544,0 22.8262,10.27172 22.8262,22.82612 0,12.5544 -10.2718,22.8262 -22.8262,22.8262 -12.5544,0 -22.8262,-10.2718 -22.8262,-22.8262 0,-12.5544 10.2718,-22.82612 22.8262,-22.82612 z m 0,39.37512 c 8.9402,0 16.1685,-7.2282 16.1685,-15.9783 0,-8.75 -7.2283,-15.97831 -15.9783,-15.97831 l 0,-1.71197 c 0,-0.76087 -0.5707,-1.14131 -1.3315,-0.76087 l -8.9403,4.56525 c -0.7608,0.3805 -0.7608,0.9511 0,1.3315 l 8.9403,4.375 c 0.5707,0.3805 1.1413,0 1.1413,-0.7608 l 0,-1.712 c 5.8967,0 10.6522,4.7555 10.6522,10.6522 0,5.8968 -4.7555,10.6522 -10.6522,10.6522 -5.5164,0 -10.0816,-4.1847 -10.6522,-9.5109 0,-0.7608 -0.5707,-1.3315 -1.3315,-1.3315 l -2.8533,0 c -0.761,0 -1.3316,0.5707 -1.3316,1.3315 0.7609,8.3696 7.6088,14.837 16.1686,14.837 z" style="fill:#009257;fill-opacity:1"/></g></svg>