<svg xmlns="http://www.w3.org/2000/svg" xmlns:svg="http://www.w3.org/2000/svg" id="svg2" width="100" height="100" version="1.1" viewBox="0 0 100 100"><metadata id="metadata7"/><g id="layer1" transform="translate(0,-952.36217)"><path style="fill:#000" id="path4-6-6" d="m 30.84633,976.24351 c -5.78095,0 -10.44732,4.6664 -10.44732,10.44734 l 0,31.34195 c 0,5.7809 4.66637,10.448 10.44732,10.448 l 38.30734,0 c 5.78091,0 10.44731,-4.6671 10.44731,-10.448 l 0,-31.34195 c 0,-5.78094 -4.6664,-10.44734 -10.44731,-10.44734 l -38.30734,0 z m -6.96467,10.44734 15.84527,0 0,10.44733 -15.84527,0 0,-10.44733 z m 19.3279,0 15.42124,0 0,10.44733 -15.42124,0 0,-10.44733 z m 18.90387,0 14.00553,0 0,10.44733 -14.00553,0 0,-10.44733 z m -38.23177,13.92995 15.84527,0 0,10.4474 -15.84527,0 0,-10.4474 z m 19.3279,0 15.42124,0 0,10.4474 -15.42124,0 0,-10.4474 z m 18.90387,0 14.00553,0 0,10.4474 -14.00553,0 0,-10.4474 z m -38.23177,13.93 15.84527,0 0,10.4473 -8.88059,0 c -3.83077,0 -6.96467,-3.1345 -6.96467,-6.9653 l 0,-3.482 z m 19.3279,0 15.42124,0 0,10.4473 -15.42124,0 0,-10.4473 z m 18.90387,0 14.00553,0 0,3.482 c 0,3.8308 -3.13456,6.9653 -6.96528,6.9653 l -7.04025,0 0,-10.4473 z"/><circle style="fill:#fff;fill-opacity:1;stroke:none;stroke-width:6;stroke-linecap:round;stroke-linejoin:round;stroke-miterlimit:4;stroke-dasharray:none;stroke-opacity:1" id="path4310" cx="68.002" cy="1012.5" r="19.188"/><path id="path6-5" d="m 68.19747,992.51333 c 11.275,0 20.5,9.22497 20.5,20.49997 0,11.275 -9.225,20.5 -20.5,20.5 -11.275,0 -20.5,-9.225 -20.5,-20.5 0,-11.275 9.225,-20.49997 20.5,-20.49997 z m 0,35.36247 c 8.02917,0 14.52083,-6.4916 14.52083,-14.35 0,-7.8583 -6.49166,-14.34997 -14.35,-14.34997 l 0,-1.5375 c 0,-0.68333 -0.5125,-1.025 -1.19583,-0.68333 l -8.02917,4.1 c -0.68333,0.3417 -0.68333,0.8542 0,1.1958 l 8.02917,3.9292 c 0.5125,0.3417 1.025,0 1.025,-0.6833 l 0,-1.5375 c 5.29583,0 9.56667,4.2708 9.56667,9.5666 0,5.2959 -4.27084,9.5667 -9.56667,9.5667 -4.95417,0 -9.05417,-3.7583 -9.56667,-8.5417 0,-0.6833 -0.5125,-1.1958 -1.19583,-1.1958 l -2.5625,0 c -0.68333,0 -1.19583,0.5125 -1.19583,1.1958 0.68333,7.5167 6.83333,13.325 14.52083,13.325 z" style="fill:#009257;fill-opacity:1"/></g></svg>