<svg xmlns="http://www.w3.org/2000/svg" xmlns:svg="http://www.w3.org/2000/svg" id="svg2" width="100" height="100" version="1.1" viewBox="0 0 100 100"><metadata id="metadata7"/><g id="layer1" transform="translate(0,-952.36217)"><g id="g4-9-4-6" transform="matrix(2.4580294,0,0,2.4580294,10.6698,963.03488)"><g id="g6-7-4-3"><path id="path8-1-8" d="m 27.274,23.738 -2.829,-2.83 c -0.695,-0.693 -1.77,-0.873 -2.666,-0.545 l -1.758,-1.758 c 1.233,-1.541 1.975,-3.488 1.975,-5.611 0,-4.963 -4.038,-9 -9,-9 -4.962,0 -9,4.037 -9,9 0,4.963 4.038,9 9,9 2.122,0 4.071,-0.742 5.611,-1.975 l 1.746,1.746 c -0.112,0.287 -0.175,0.594 -0.175,0.91 0,0.67 0.26,1.297 0.732,1.768 l 2.829,2.83 c 0.473,0.473 1.101,0.732 1.768,0.732 0.668,0 1.295,-0.262 1.768,-0.732 0.974,-0.974 0.974,-2.56 -10e-4,-3.535 z M 5.996,12.994 c 0,-3.859 3.14,-7 7,-7 3.86,0 7,3.141 7,7 0,3.859 -3.14,7 -7,7 -3.86,0 -7,-3.14 -7,-7 z"/><path style="fill:red" id="polygon10-8-5" d="m 16.996,11.994 -8,0 0,2 8,0 z"/></g></g></g></svg>