<svg xmlns="http://www.w3.org/2000/svg" xmlns:svg="http://www.w3.org/2000/svg" id="svg2" width="197.586" height="98.793" version="1.1" viewBox="0 0 197.586 98.793"><metadata id="metadata7"/><g id="layer1" transform="translate(0,-952.36217)"><path style="fill:#1a1a1a;fill-opacity:1;stroke:none;stroke-width:1.5;stroke-linejoin:miter;stroke-miterlimit:4;stroke-dasharray:none;stroke-opacity:1" id="rect4146-2-2-0" d="m 0,952.36217 0,98.79273 197.58567,0 0,-98.79273 -197.58567,0 z m 42.48092,32.601 112.62387,0 c 7.79697,0 14.16031,4.9595 14.16031,11.1969 l 0,12.84323 c 0,6.2374 -6.36334,11.1969 -14.16031,11.1969 l -112.62387,0 c -7.79696,0 -14.1603,-4.9595 -14.1603,-11.1969 l 0,-12.84323 c 0,-6.2374 6.36334,-11.1969 14.1603,-11.1969 z m 1.07033,4.3837 c -6.4477,0 -10.88784,4.6998 -10.88784,10.5381 l 0,5.45423 c 0,5.8383 4.44014,10.5381 10.88784,10.5381 l 110.91557,0 c 6.4478,0 10.47614,-4.6998 10.47614,-10.5381 l 0,-5.45423 c 0,-5.8383 -4.02834,-10.5381 -10.47614,-10.5381 l -110.91557,0 z"/></g></svg>