<svg xmlns="http://www.w3.org/2000/svg" xmlns:svg="http://www.w3.org/2000/svg" id="svg2" width="158.727" height="79.364" version="1.1" viewBox="0 0 158.727 79.364"><metadata id="metadata7"/><g id="layer1" transform="translate(58.72718,-952.36217)"><path style="fill:#1a1a1a;fill-opacity:1;stroke:none;stroke-width:1.5;stroke-linejoin:miter;stroke-miterlimit:4;stroke-dasharray:none;stroke-opacity:1" id="rect4146" d="m 11.74508,952.36217 c -38.98512,0 -70.47226,28.6949 -70.47226,64.21533 l 0,15.1483 23.38096,0 135.34622,0 0,-79.36363 -88.25492,0 z m 0.3286,35.8947 c 2.40338,0 4.28103,1.8778 4.28103,4.281 0,2.4033 -1.87765,4.6103 -4.28103,4.6103 -2.40332,0 -4.28107,-2.207 -4.28107,-4.6103 0,-2.4032 1.87775,-4.281 4.28107,-4.281 z m 15.14822,0.3286 c 2.27344,0 4.28106,1.6783 4.28106,3.9517 0,2.2735 -2.00762,4.2811 -4.28106,4.2811 -2.27333,0 -3.95168,-2.0076 -3.95168,-4.2811 0,-2.2734 1.67835,-3.9517 3.95168,-3.9517 z"/></g></svg>