<svg xmlns="http://www.w3.org/2000/svg" xmlns:svg="http://www.w3.org/2000/svg" id="svg2" width="100" height="100" version="1.1" viewBox="0 0 100 100"><metadata id="metadata7"/><g id="layer1" transform="translate(0,-952.36217)"><path style="color:#000;text-indent:0;text-transform:none;direction:ltr;block-progression:tb;baseline-shift:baseline;display:inline;overflow:visible;visibility:visible;fill:#000;fill-opacity:1;stroke:none;marker:none;enable-background:accumulate" id="path4252-7" d="m 26.23297,965.20019 c -2.31567,0 -4.20617,1.8905 -4.20617,4.2062 l 0,65.61621 c 0,2.3156 1.8905,4.2061 4.20617,4.2061 l 47.10907,0 c 2.31566,0 4.20616,-1.8905 4.20616,-4.2061 l 0,-65.61621 c 0,-2.3157 -1.8905,-4.2062 -4.20616,-4.2062 l -47.10907,0 z"/><path style="color:#000;text-indent:0;text-transform:none;direction:ltr;block-progression:tb;baseline-shift:baseline;display:inline;overflow:visible;visibility:visible;fill:#fff;fill-opacity:1;stroke:none;marker:none;enable-background:accumulate" id="path4250-7" d="m 26.23297,966.88269 47.10907,0 c 1.41268,0 2.5237,1.111 2.5237,2.5237 l 0,65.61621 c 0,1.4127 -1.11102,2.5237 -2.5237,2.5237 l -47.10907,0 c -1.41269,0 -2.52371,-1.111 -2.52371,-2.5237 l 0,-65.61621 c 0,-1.4127 1.11102,-2.5237 2.52371,-2.5237 z"/><path style="color:#000;text-indent:0;text-transform:none;direction:ltr;block-progression:tb;baseline-shift:baseline;display:inline;overflow:visible;visibility:visible;fill:#000;fill-opacity:1;stroke:none;marker:none;enable-background:accumulate" id="path4248-9" d="m 32.96283,978.65989 c -0.46462,0 -0.84124,0.3767 -0.84124,0.8413 0,0.4646 0.37662,0.8412 0.84124,0.8412 l 33.64934,0 c 0.46462,0 0.84124,-0.3766 0.84124,-0.8412 0,-0.4646 -0.37662,-0.8413 -0.84124,-0.8413 l -33.64934,0 z"/><path style="color:#000;text-indent:0;text-transform:none;direction:ltr;block-progression:tb;baseline-shift:baseline;display:inline;overflow:visible;visibility:visible;fill:#000;fill-opacity:1;stroke:none;marker:none;enable-background:accumulate" id="path4246-3" d="m 32.96283,993.80209 c -0.46462,0 -0.84124,0.3767 -0.84124,0.8413 0,0.4646 0.37662,0.8412 0.84124,0.8412 l 33.64934,0 c 0.46462,0 0.84124,-0.3766 0.84124,-0.8412 0,-0.4646 -0.37662,-0.8413 -0.84124,-0.8413 l -33.64934,0 z"/><path style="color:#000;text-indent:0;text-transform:none;direction:ltr;block-progression:tb;baseline-shift:baseline;display:inline;overflow:visible;visibility:visible;fill:#000;fill-opacity:1;stroke:none;marker:none;enable-background:accumulate" id="path4244-8" d="m 32.96283,1008.9443 c -0.46462,0 -0.84124,0.3766 -0.84124,0.8413 0,0.4646 0.37662,0.8412 0.84124,0.8412 l 33.64934,0 c 0.46462,0 0.84124,-0.3766 0.84124,-0.8412 0,-0.4647 -0.37662,-0.8413 -0.84124,-0.8413 l -33.64934,0 z"/><path style="color:#000;text-indent:0;text-transform:none;direction:ltr;block-progression:tb;baseline-shift:baseline;display:inline;overflow:visible;visibility:visible;fill:#000;fill-opacity:1;stroke:none;marker:none;enable-background:accumulate" id="path6-7" d="m 32.96283,1024.0865 c -0.46462,0 -0.84124,0.3767 -0.84124,0.8413 0,0.4646 0.37662,0.8412 0.84124,0.8412 l 33.64934,0 c 0.46462,0 0.84124,-0.3766 0.84124,-0.8412 0,-0.4646 -0.37662,-0.8413 -0.84124,-0.8413 l -33.64934,0 z"/><rect style="fill:green;fill-opacity:1;stroke:none;stroke-width:16;stroke-linecap:round;stroke-linejoin:round;stroke-miterlimit:4;stroke-dasharray:none;stroke-opacity:1" id="rect4296" width="47.5" height="31.578" x="38.891" y="1001.228" rx=".121" ry=".123"/><g style="font-style:normal;font-weight:400;font-size:40px;line-height:125%;font-family:sans-serif;letter-spacing:0;word-spacing:0;fill:#fff;fill-opacity:1;stroke:none;stroke-width:1px;stroke-linecap:butt;stroke-linejoin:miter;stroke-opacity:1" id="flowRoot4298" transform="matrix(0.49030061,0,0,0.49030061,-5.22558,886.39559)"><path style="font-style:normal;font-variant:normal;font-weight:700;font-stretch:normal;font-family:sans-serif;-inkscape-font-specification:'sans-serif Bold';fill:#fff" id="path4315" d="m 120.8418,281.10434 q -2.07032,1.07422 -4.31641,1.6211 -2.24609,0.54687 -4.6875,0.54687 -7.28516,0 -11.54297,-4.0625 -4.257811,-4.08203 -4.257811,-11.05469 0,-6.99218 4.257811,-11.05468 4.25781,-4.08204 11.54297,-4.08204 2.44141,0 4.6875,0.54688 2.24609,0.54687 4.31641,1.62109 l 0,6.03516 q -2.08985,-1.42578 -4.1211,-2.08984 -2.03125,-0.66407 -4.27734,-0.66407 -4.02344,0 -6.32813,2.57813 -2.30468,2.57812 -2.30468,7.10937 0,4.51172 2.30468,7.08985 2.30469,2.57812 6.32813,2.57812 2.24609,0 4.27734,-0.66406 2.03125,-0.66406 4.1211,-2.08984 l 0,6.03515 z"/><path style="font-style:normal;font-variant:normal;font-weight:700;font-stretch:normal;font-family:sans-serif;-inkscape-font-specification:'sans-serif Bold';fill:#fff" id="path4317" d="m 148.16602,254.46372 0,6.17187 q -2.40235,-1.07422 -4.6875,-1.62109 -2.28516,-0.54688 -4.31641,-0.54688 -2.69531,0 -3.98438,0.74219 -1.28906,0.74219 -1.28906,2.30469 0,1.17187 0.85938,1.83594 0.8789,0.64453 3.16406,1.11328 l 3.20312,0.64453 q 4.86329,0.97656 6.91407,2.96875 2.05078,1.99219 2.05078,5.66406 0,4.82422 -2.8711,7.1875 -2.85156,2.34375 -8.73046,2.34375 -2.77344,0 -5.56641,-0.52734 -2.79297,-0.52735 -5.58594,-1.5625 l 0,-6.34766 q 2.79297,1.48438 5.39063,2.24609 2.61718,0.74219 5.03906,0.74219 2.46094,0 3.76953,-0.82031 1.30859,-0.82031 1.30859,-2.34375 0,-1.36719 -0.89843,-2.10938 -0.87891,-0.74218 -3.53516,-1.32812 l -2.91016,-0.64453 q -4.375,-0.9375 -6.40625,-2.98828 -2.01171,-2.05078 -2.01171,-5.52735 0,-4.35547 2.8125,-6.69922 2.8125,-2.34375 8.08593,-2.34375 2.40235,0 4.94141,0.3711 2.53906,0.35156 5.25391,1.07422 z"/><path style="font-style:normal;font-variant:normal;font-weight:700;font-stretch:normal;font-family:sans-serif;-inkscape-font-specification:'sans-serif Bold';fill:#fff" id="path4319" d="m 153.22461,253.54575 7.55859,0 7.73438,21.52344 7.71484,-21.52344 7.5586,0 -10.80079,29.16015 -8.96484,0 -10.80078,-29.16015 z"/></g><flowRoot id="flowRoot4306" xml:space="preserve" style="fill:#000;stroke:none;stroke-opacity:1;stroke-width:1px;stroke-linejoin:miter;stroke-linecap:butt;fill-opacity:1;font-family:sans-serif;font-style:normal;font-weight:400;font-size:40px;line-height:125%;letter-spacing:0;word-spacing:0"><flowRegion id="flowRegion4308"><rect id="rect4310" width="145.664" height="173.241" x="45.962" y="82.322"/></flowRegion><flowPara id="flowPara4312"/></flowRoot></g></svg>