<svg xmlns="http://www.w3.org/2000/svg" xmlns:svg="http://www.w3.org/2000/svg" id="svg2" width="100" height="100" version="1.1" viewBox="0 0 100 100"><metadata id="metadata7"/><g id="layer1" transform="translate(0,-952.36217)"><flowRoot id="flowRoot4306" xml:space="preserve" style="fill:#000;stroke:none;stroke-opacity:1;stroke-width:1px;stroke-linejoin:miter;stroke-linecap:butt;fill-opacity:1;font-family:sans-serif;font-style:normal;font-weight:400;font-size:40px;line-height:125%;letter-spacing:0;word-spacing:0"><flowRegion id="flowRegion4308"><rect id="rect4310" width="145.664" height="173.241" x="45.962" y="82.322"/></flowRegion><flowPara id="flowPara4312"/></flowRoot><g id="g140" transform="matrix(0.80363121,0,0,0.80363121,-723.93315,473.94663)"><path id="path142" d="m 962.9931,620.54636 c -17.57271,0 -31.81782,4.4851 -31.81782,10.01784 0,0.0178 -2e-5,0.0345 8.1e-4,0.0523 0.0887,5.50887 14.29981,9.96572 31.81701,9.96572 17.5172,0 31.72819,-4.45693 31.81685,-9.96572 8.3e-4,-0.0177 9.7e-4,-0.0343 9.7e-4,-0.0521 0,-5.53282 -14.2451,-10.018 -31.81782,-10.018 z m -31.80131,13.8847 0.0207,14.11368 c 0,0.0178 1.4e-4,0.0344 9.7e-4,0.0521 0.0886,5.50871 14.29973,9.96573 31.81685,9.96573 17.51729,0 31.72836,-4.45702 31.81702,-9.96573 8.2e-4,-0.0177 8.1e-4,-0.0343 8.1e-4,-0.0521 l -0.0207,-14.11368 c 0,0.0178 2e-5,0.0345 -8.1e-4,0.0523 -0.0887,5.5087 -14.29973,9.96556 -31.81701,9.96556 -17.51712,0 -31.72828,-4.45686 -31.81685,-9.96556 -8.3e-4,-0.0177 -9.7e-4,-0.0345 -9.7e-4,-0.0523 z m -0.005,18.06324 0.0207,14.11369 c 0,0.0178 -2e-5,0.0344 8.1e-4,0.0521 0.0887,5.50871 14.29981,9.96572 31.81701,9.96572 17.51729,0 31.72835,-4.45701 31.81701,-9.96572 8.3e-4,-0.0177 8.1e-4,-0.0343 8.1e-4,-0.0521 l -0.0207,-14.11369 c 0,0.0178 2e-5,0.0345 -8.1e-4,0.0523 -0.0887,5.50871 -14.29973,9.96556 -31.81701,9.96556 -17.51721,0 -31.72844,-4.45685 -31.81702,-9.96556 -8.2e-4,-0.0177 -8.1e-4,-0.0345 -8.1e-4,-0.0523 z m 0.0719,17.89752 0.0207,14.11353 c 0,0.0178 -2e-5,0.0345 8.1e-4,0.0523 0.0887,5.50879 14.29981,9.96573 31.81702,9.96573 17.5172,0 31.72819,-4.45702 31.81685,-9.96573 8.2e-4,-0.0177 9.7e-4,-0.0343 9.7e-4,-0.0521 l -0.0207,-14.11369 c 0,0.0178 -1.4e-4,0.0344 -9.7e-4,0.0521 -0.0887,5.50871 -14.29965,9.96573 -31.81685,9.96573 -17.51721,0 -31.72844,-4.45702 -31.81702,-9.96573 -8.2e-4,-0.0177 -8e-4,-0.0343 -8e-4,-0.0521 z"/></g></g></svg>