<svg xmlns="http://www.w3.org/2000/svg" xmlns:svg="http://www.w3.org/2000/svg" id="svg13" width="16" height="16" version="1.1" viewBox="0 0 16 16"><metadata id="metadata17"/><defs id="defs5"><linearGradient id="linearGradient37621" x1="21.994" x2="20.917" y1="33.955" y2="15.815" gradientTransform="matrix(0.312798, 0, 0, 0.312798, 0.522637, 0.894594)" gradientUnits="userSpaceOnUse"><stop style="stop-color:#fffeff;stop-opacity:.33333334" id="stop3959-0-2-1" offset="0"/><stop style="stop-color:#fffeff;stop-opacity:.21568628" id="stop3961-9-3-2" offset="1"/></linearGradient></defs><path style="fill:#343434;stroke-width:1.8371073" id="path11" d="m 12.404609,6.6172528 h -0.268218 v -1.249233 c 0,-2.3074068 -1.831595,-4.2382072 -4.122467,-4.2804607 -0.062465,0 -0.1892223,0 -0.2498467,0 C 5.4732044,1.1298127 3.6397712,3.060613 3.6397712,5.3680198 v 1.249233 H 3.3752277 c -0.411512,0 -0.7477027,0.4225347 -0.7477027,0.9461104 v 6.2627008 c 0,0.523575 0.3361907,0.949784 0.7477027,0.949784 h 9.0293813 c 0.409675,0 0.745866,-0.426209 0.745866,-0.949784 V 7.5633632 c 0,-0.5235757 -0.336191,-0.9461104 -0.745866,-0.9461104 z m -2.024492,0 H 8.013924 7.7640773 5.39972 v -1.249233 c 0,-1.3759934 1.1169614,-2.5131629 2.4892804,-2.5131629 1.3741563,0 2.4911166,1.1371695 2.4911166,2.5131629 z"/></svg>